SplineFontDB: 3.0
FontName: BlackLipstick
FullName: Black Lipstick
FamilyName: Black Lipstick
Weight: Book
Copyright: (c)1998 - 2000 Tea Curran http://www.grilledcheese.com
Version: Grilledcheese.com 7/25/2000
ItalicAngle: 0
UnderlinePosition: -123
UnderlineWidth: 20
Ascent: 800
Descent: 200
InvalidEm: 0
sfntRevision: 0x00010000
LayerCount: 2
Layer: 0 1 "Back" 1
Layer: 1 1 "Fore" 0
XUID: [1021 270 -1463357204 12714540]
FSType: 2
OS2Version: 1
OS2_WeightWidthSlopeOnly: 0
OS2_UseTypoMetrics: 1
CreationTime: 964567483
ModificationTime: 964567483
PfmFamily: 81
TTFWeight: 400
TTFWidth: 5
LineGap: 0
VLineGap: 0
Panose: 0 0 4 0 0 0 0 0 0 0
OS2TypoAscent: 878
OS2TypoAOffset: 0
OS2TypoDescent: -319
OS2TypoDOffset: 0
OS2TypoLinegap: 0
OS2WinAscent: 878
OS2WinAOffset: 0
OS2WinDescent: 319
OS2WinDOffset: 0
HheadAscent: 878
HheadAOffset: 0
HheadDescent: -319
HheadDOffset: 0
OS2SubXSize: 700
OS2SubYSize: 650
OS2SubXOff: 0
OS2SubYOff: 143
OS2SupXSize: 700
OS2SupYSize: 650
OS2SupXOff: 0
OS2SupYOff: 453
OS2StrikeYSize: 50
OS2StrikeYPos: 259
OS2CapHeight: 0
OS2XHeight: 0
OS2Vendor: 'MACR'
OS2CodePages: 00000001.00000000
OS2UnicodeRanges: 00000003.00000000.00000000.00000000
Lookup: 258 0 0 "'kern' Horizontal Kerning in Latin lookup 0" { "'kern' Horizontal Kerning in Latin lookup 0 subtable"  } ['kern' ('DFLT' <'dflt' > 'latn' <'dflt' > ) ]
DEI: 91125
TtTable: prep
NPUSHB
 19
 12
 12
 11
 11
 10
 10
 9
 9
 4
 4
 3
 3
 2
 2
 1
 1
 0
 0
 1
SCANTYPE
PUSHW_1
 511
SCANCTRL
RCVT
ROUND[Grey]
WCVTP
RCVT
ROUND[Grey]
WCVTP
RCVT
ROUND[Grey]
WCVTP
RCVT
ROUND[Grey]
WCVTP
RCVT
ROUND[Grey]
WCVTP
RCVT
ROUND[Grey]
WCVTP
RCVT
ROUND[Grey]
WCVTP
RCVT
ROUND[Grey]
WCVTP
RCVT
ROUND[Grey]
WCVTP
PUSHB_4
 6
 5
 70
 0
CALL
PUSHB_4
 8
 7
 70
 0
CALL
PUSHB_2
 5
 5
RCVT
ROUND[Grey]
WCVTP
PUSHB_2
 7
 7
RCVT
ROUND[Grey]
WCVTP
EndTTInstrs
TtTable: fpgm
NPUSHB
 1
 0
FDEF
SROUND
RCVT
DUP
PUSHB_1
 3
CINDEX
RCVT
SWAP
SUB
ROUND[Grey]
RTG
SWAP
ROUND[Grey]
ADD
WCVTP
ENDF
EndTTInstrs
ShortTable: cvt  16
  -281
  -6
  519

StartChar: .notdef
Encoding: 256 -1 0
Width: 500
Flags: W
LayerCount: 2
Back
Fore
SplineSet
63 0 m 1,0,-1
 63 800 l 1,1,-1
 438 800 l 1,2,-1
 438 0 l 1,3,-1
 63 0 l 1,0,-1
125 63 m 1,4,-1
 375 63 l 1,5,-1
 375 738 l 1,6,-1
 125 738 l 1,7,-1
 125 63 l 1,4,-1
EndSplineSet
EndChar

StartChar: exclam
Encoding: 33 33 4
Width: 815
Flags: W
LayerCount: 2
Back
Fore
SplineSet
632 376 m 0,0,1
 632 463 632 463 579 527 c 1,2,-1
 623 571 l 1,3,4
 666 558 666 558 709.5 520 c 128,-1,5
 753 482 753 482 767 445 c 1,6,7
 761 503 761 503 705 574 c 0,8,9
 655 637 655 637 609 664 c 1,10,-1
 524 578 l 1,11,12
 468 617 468 617 393 617 c 0,13,14
 306 617 306 617 244 564 c 1,15,-1
 209 599 l 1,16,17
 222 642 222 642 260 685.5 c 128,-1,18
 298 729 298 729 335 743 c 1,19,20
 278 736 278 736 206 681 c 0,21,22
 143 631 143 631 116 585 c 1,23,-1
 193 508 l 1,24,25
 154 451 154 451 154 376 c 0,26,27
 154 294 154 294 201 232 c 1,28,-1
 163 194 l 1,29,30
 120 207 120 207 76.5 245 c 128,-1,31
 33 283 33 283 19 320 c 1,32,33
 25 263 25 263 81 191 c 0,34,35
 130 128 130 128 177 101 c 1,36,-1
 254 179 l 1,37,38
 314 134 314 134 393 134 c 0,39,40
 461 134 461 134 516 167 c 1,41,-1
 562 120 l 1,42,43
 549 77 549 77 511.5 33.5 c 128,-1,44
 474 -10 474 -10 437 -24 c 1,45,46
 494 -18 494 -18 566 38 c 0,47,48
 629 88 629 88 655 134 c 1,49,-1
 573 216 l 1,50,51
 632 282 632 282 632 376 c 0,0,1
257 381 m 0,52,53
 257 440 257 440 297 481.5 c 128,-1,54
 337 523 337 523 393 523 c 256,55,56
 449 523 449 523 489 481.5 c 128,-1,57
 529 440 529 440 529 381 c 0,58,59
 529 323 529 323 489 281.5 c 128,-1,60
 449 240 449 240 393 240 c 256,61,62
 337 240 337 240 297 281.5 c 128,-1,63
 257 323 257 323 257 381 c 0,52,53
EndSplineSet
EndChar

StartChar: quotedbl
Encoding: 34 34 5
Width: 811
Flags: W
LayerCount: 2
Back
Fore
SplineSet
628 313 m 0,0,1
 637 346 637 346 637 378 c 0,2,3
 637 428 637 428 616 473 c 1,4,-1
 670 504 l 1,5,6
 708 480 708 480 740.5 432.5 c 128,-1,7
 773 385 773 385 776 346 c 1,8,9
 778 356 778 356 778 367 c 0,10,11
 778 424 778 424 745 498 c 0,12,13
 714 564 714 564 680 597 c 1,14,-1
 576 536 l 1,15,16
 532 589 532 589 460 608 c 0,17,18
 426 618 426 618 395 618 c 0,19,20
 347 618 347 618 302 595 c 1,21,-1
 277 638 l 1,22,23
 301 676 301 676 348.5 708.5 c 128,-1,24
 396 741 396 741 436 745 c 1,25,26
 426 746 426 746 414 746 c 0,27,28
 357 746 357 746 284 713 c 0,29,30
 217 683 217 683 184 649 c 1,31,-1
 238 554 l 1,32,33
 185 509 185 509 166 437 c 0,34,35
 157 404 157 404 157 372 c 0,36,37
 157 329 157 329 174 286 c 1,38,-1
 128 260 l 1,39,40
 89 283 89 283 57 331 c 128,-1,41
 25 379 25 379 21 418 c 1,42,43
 20 408 20 408 20 396 c 0,44,45
 20 339 20 339 53 266 c 0,46,47
 83 199 83 199 117 166 c 1,48,-1
 212 221 l 1,49,50
 258 162 258 162 335 142 c 0,51,52
 367 133 367 133 399 133 c 256,53,54
 431 133 431 133 462 142 c 1,55,-1
 495 84 l 1,56,57
 471 46 471 46 423.5 13.5 c 128,-1,58
 376 -19 376 -19 336 -22 c 1,59,60
 347 -24 347 -24 358 -24 c 0,61,62
 415 -24 415 -24 488 10 c 0,63,64
 555 40 555 40 588 74 c 1,65,-1
 530 175 l 1,66,67
 604 222 604 222 628 313 c 0,0,1
267 416 m 0,68,69
 280 463 280 463 317.5 492.5 c 128,-1,70
 355 522 355 522 401 522 c 0,71,72
 418 522 418 522 435 517 c 0,73,74
 480 505 480 505 507.5 467.5 c 128,-1,75
 535 430 535 430 535 383 c 0,76,77
 535 364 535 364 530 346 c 0,78,79
 517 298 517 298 479.5 269 c 128,-1,80
 442 240 442 240 396 240 c 0,81,82
 379 240 379 240 362 244 c 0,83,84
 317 256 317 256 289.5 293.5 c 128,-1,85
 262 331 262 331 262 378 c 0,86,87
 262 397 262 397 267 416 c 0,68,69
EndSplineSet
EndChar

StartChar: numbersign
Encoding: 35 35 6
Width: 807
Flags: W
LayerCount: 2
Back
Fore
SplineSet
608 254 m 0,0,1
 641 311 641 311 641 373 c 0,2,3
 641 392 641 392 638 411 c 1,4,-1
 698 427 l 1,5,6
 725 399 725 399 743 352.5 c 128,-1,7
 761 306 761 306 761 267 c 0,8,9
 761 256 761 256 760 247 c 1,10,11
 775 280 775 280 775 332 c 0,12,13
 775 443 775 443 732 515 c 1,14,-1
 615 483 l 1,15,16
 587 545 587 545 522 583 c 0,17,18
 466 615 466 615 408 615 c 0,19,20
 388 615 388 615 366 611 c 1,21,-1
 354 658 l 1,22,23
 382 685 382 685 428.5 703.5 c 128,-1,24
 475 722 475 722 514 722 c 0,25,26
 525 722 525 722 534 720 c 1,27,28
 501 735 501 735 449 735 c 0,29,30
 338 735 338 735 266 693 c 1,31,-1
 294 588 l 1,32,33
 231 558 231 558 194 493 c 0,34,35
 161 436 161 436 161 376 c 0,36,37
 161 361 161 361 163 345 c 1,38,-1
 111 331 l 1,39,40
 84 360 84 360 66 406.5 c 128,-1,41
 48 453 48 453 48 492 c 0,42,43
 48 503 48 503 49 512 c 1,44,45
 34 479 34 479 34 427 c 0,46,47
 34 316 34 316 77 244 c 1,48,-1
 183 273 l 1,49,50
 212 204 212 204 280 164 c 0,51,52
 339 130 339 130 403 132 c 1,53,-1
 420 67 l 1,54,55
 391 40 391 40 345 22 c 128,-1,56
 299 4 299 4 259 4 c 0,57,58
 249 4 249 4 239 5 c 1,59,60
 273 -9 273 -9 325 -9 c 0,61,62
 436 -9 436 -9 508 33 c 1,63,-1
 477 145 l 1,64,65
 561 172 561 172 608 254 c 0,0,1
286 446 m 0,66,67
 328 518 328 518 408 518 c 0,68,69
 444 518 444 518 474 501 c 0,70,71
 541 462 541 462 541 383 c 0,72,73
 541 344 541 344 522 311 c 0,74,75
 480 239 480 239 399 239 c 0,76,77
 364 239 364 239 333 256 c 0,78,79
 267 295 267 295 267 374 c 0,80,81
 267 413 267 413 286 446 c 0,66,67
EndSplineSet
EndChar

StartChar: dollar
Encoding: 36 36 7
Width: 864
Flags: W
LayerCount: 2
Back
Fore
SplineSet
574 202 m 0,0,1
 635 263 635 263 643 346 c 1,2,-1
 705 346 l 1,3,4
 731 297 731 297 731 229 c 0,5,6
 731 184 731 184 718 156 c 1,7,8
 769 219 769 219 769 349 c 0,9,10
 769 393 769 393 761 422 c 1,11,-1
 640 421 l 1,12,13
 628 489 628 489 575 542 c 0,14,15
 513 603 513 603 432 609 c 1,16,-1
 432 658 l 1,17,18
 481 685 481 685 550 685 c 0,19,20
 594 685 594 685 623 672 c 1,21,22
 559 722 559 722 430 722 c 0,23,24
 385 722 385 722 357 714 c 1,25,-1
 356 605 l 1,26,27
 288 593 288 593 235 540 c 0,28,29
 177 482 177 482 167 405 c 1,30,-1
 114 405 l 1,31,32
 87 454 87 454 87 523 c 0,33,34
 87 567 87 567 100 596 c 1,35,36
 50 532 50 532 50 403 c 0,37,38
 50 358 50 358 58 330 c 1,39,-1
 167 330 l 1,40,41
 177 256 177 256 233 200 c 0,42,43
 282 152 282 152 344 137 c 1,44,-1
 344 70 l 1,45,46
 295 44 295 44 226 44 c 0,47,48
 182 44 182 44 153 57 c 1,49,50
 217 6 217 6 346 6 c 0,51,52
 391 6 391 6 419 14 c 1,53,-1
 419 131 l 1,54,55
 507 135 507 135 574 202 c 0,0,1
414 514 m 0,57,58
 470 514 470 514 508.5 475 c 128,-1,59
 547 436 547 436 547 380 c 0,60,61
 547 321 547 321 504.5 278.5 c 128,-1,62
 462 236 462 236 403 236 c 0,63,64
 347 236 347 236 308.5 275 c 128,-1,65
 270 314 270 314 270 370 c 0,66,67
 270 429 270 429 312.5 471.5 c 128,-1,56
 355 514 355 514 414 514 c 0,57,58
EndSplineSet
EndChar

StartChar: percent
Encoding: 37 37 8
Width: 864
Flags: W
LayerCount: 2
Back
Fore
SplineSet
527 160 m 0,0,1
 602 204 602 204 631 282 c 1,2,-1
 691 266 l 1,3,4
 696 245 696 245 696 220 c 0,5,6
 696 129 696 129 654 78 c 1,7,8
 701 113 701 113 735 196 c 0,9,10
 765 271 765 271 765 324 c 1,11,-1
 647 355 l 1,12,13
 654 424 654 424 616 488 c 0,14,15
 573 564 573 564 495 591 c 1,16,-1
 508 638 l 1,17,18
 529 643 529 643 554 643 c 0,19,20
 646 643 646 643 696 601 c 1,21,22
 662 648 662 648 578 682 c 0,23,24
 503 712 503 712 450 712 c 1,25,-1
 421 607 l 1,26,27
 352 612 352 612 287 575 c 0,28,29
 217 534 217 534 187 462 c 1,30,-1
 135 476 l 1,31,32
 130 497 130 497 130 522 c 0,33,34
 130 613 130 613 172 664 c 1,35,36
 125 629 125 629 91 546 c 0,37,38
 61 471 61 471 61 418 c 1,39,-1
 167 389 l 1,40,41
 165 375 165 375 165 361 c 0,42,43
 165 300 165 300 199.5 243 c 128,-1,44
 234 186 234 186 288 157 c 1,45,-1
 270 93 l 1,46,47
 250 88 250 88 224 88 c 0,48,49
 133 88 133 88 83 129 c 1,50,51
 117 83 117 83 201 49 c 0,52,53
 276 19 276 19 329 19 c 1,54,-1
 359 132 l 1,55,56
 383 127 383 127 407 127 c 0,57,58
 468 127 468 127 527 160 c 0,0,1
344 488 m 0,59,60
 378 508 378 508 416 508 c 0,61,62
 496 508 496 508 534 441 c 0,63,64
 552 410 552 410 552 375 c 0,65,66
 552 294 552 294 480 253 c 0,67,68
 446 233 446 233 408 233 c 0,69,70
 328 233 328 233 290 300 c 0,71,72
 272 330 272 330 272 366 c 0,73,74
 272 447 272 447 344 488 c 0,59,60
EndSplineSet
EndChar

StartChar: ampersand
Encoding: 38 38 9
Width: 864
Flags: W
LayerCount: 2
Back
Fore
SplineSet
471 132 m 0,0,1
 555 155 555 155 603 223 c 1,2,-1
 657 192 l 1,3,4
 655 147 655 147 630 95 c 128,-1,5
 605 43 605 43 573 20 c 1,6,7
 626 41 626 41 681 113 c 0,8,9
 729 178 729 178 743 229 c 1,10,-1
 638 289 l 1,11,12
 651 326 651 326 651 362 c 0,13,14
 651 393 651 393 642 426 c 0,15,16
 619 510 619 510 552 556 c 1,17,-1
 577 599 l 1,18,19
 622 597 622 597 673.5 572 c 128,-1,20
 725 547 725 547 748 515 c 1,21,22
 727 568 727 568 655 623 c 0,23,24
 591 671 591 671 539 685 c 1,25,-1
 484 591 l 1,26,27
 448 604 448 604 411 604 c 0,28,29
 381 604 381 604 347 595 c 0,30,31
 268 574 268 574 220 512 c 1,32,-1
 174 539 l 1,33,34
 175 584 175 584 200.5 635.5 c 128,-1,35
 226 687 226 687 258 710 c 1,36,37
 204 689 204 689 150 617 c 0,38,39
 101 553 101 553 88 501 c 1,40,-1
 183 447 l 1,41,42
 166 406 166 406 166 365 c 0,43,44
 166 260 166 260 239 191 c 1,45,-1
 206 134 l 1,46,47
 160 135 160 135 108.5 160 c 128,-1,48
 57 185 57 185 34 217 c 1,49,50
 55 164 55 164 127 109 c 0,51,52
 191 61 191 61 243 47 c 1,53,-1
 301 148 l 1,54,55
 350 123 350 123 404 123 c 0,56,57
 437 123 437 123 471 132 c 0,0,1
379 496 m 0,58,59
 398 501 398 501 417 501 c 0,60,61
 464 501 464 501 501.5 473.5 c 128,-1,62
 539 446 539 446 551 402 c 0,63,64
 555 385 555 385 555 368 c 0,65,66
 555 322 555 322 526 284 c 128,-1,67
 497 246 497 246 449 234 c 0,68,69
 431 229 431 229 411 229 c 0,70,71
 365 229 365 229 327.5 256.5 c 128,-1,72
 290 284 290 284 278 329 c 0,73,74
 273 345 273 345 273 363 c 0,75,76
 273 409 273 409 302.5 446.5 c 128,-1,77
 332 484 332 484 379 496 c 0,58,59
EndSplineSet
EndChar

StartChar: quotesingle
Encoding: 39 39 10
Width: 824
Flags: W
LayerCount: 2
Back
Fore
SplineSet
407 120 m 0,0,1
 495 120 495 120 559 173 c 1,2,-1
 603 129 l 1,3,4
 590 86 590 86 552 42.5 c 128,-1,5
 514 -1 514 -1 477 -15 c 1,6,7
 534 -9 534 -9 606 47 c 0,8,9
 669 97 669 97 696 143 c 1,10,-1
 610 228 l 1,11,12
 649 284 649 284 649 359 c 0,13,14
 649 446 649 446 596 508 c 1,15,-1
 631 543 l 1,16,17
 674 530 674 530 717.5 492 c 128,-1,18
 761 454 761 454 775 417 c 1,19,20
 768 474 768 474 713 546 c 0,21,22
 663 609 663 609 617 636 c 1,23,-1
 540 559 l 1,24,25
 482 598 482 598 407 598 c 0,26,27
 326 598 326 598 264 551 c 1,28,-1
 226 589 l 1,29,30
 239 632 239 632 277 675.5 c 128,-1,31
 315 719 315 719 352 733 c 1,32,33
 294 727 294 727 223 671 c 0,34,35
 160 622 160 622 133 575 c 1,36,-1
 211 498 l 1,37,38
 166 438 166 438 166 359 c 0,39,40
 166 291 166 291 199 236 c 1,41,-1
 152 189 l 1,42,43
 109 202 109 202 65.5 240 c 128,-1,44
 22 278 22 278 8 315 c 1,45,46
 14 258 14 258 70 186 c 0,47,48
 119 123 119 123 166 96 c 1,49,-1
 248 179 l 1,50,51
 314 120 314 120 407 120 c 0,0,1
413 495 m 0,52,53
 472 495 472 495 513 455 c 128,-1,54
 554 415 554 415 554 359 c 256,55,56
 554 303 554 303 513 263 c 128,-1,57
 472 223 472 223 413 223 c 0,58,59
 355 223 355 223 313.5 263 c 128,-1,60
 272 303 272 303 272 359 c 256,61,62
 272 415 272 415 313.5 455 c 128,-1,63
 355 495 355 495 413 495 c 0,52,53
EndSplineSet
EndChar

StartChar: parenleft
Encoding: 40 40 11
Width: 298
Flags: W
LayerCount: 2
Back
Fore
SplineSet
23 415 m 1,0,1
 23 417 23 417 23 32 c 0,2,3
 23 21 23 21 24 21 c 0,4,5
 27 21 27 21 38 68 c 128,-1,6
 49 115 49 115 52 115 c 0,7,8
 54 113 54 113 54 102 c 0,9,10
 67 62 67 62 68 58 c 0,11,12
 75 42 75 42 91 17 c 0,13,14
 135 -53 135 -53 204 -110 c 0,15,16
 267 -162 267 -162 320 -175 c 1,17,-1
 282 -144 l 2,18,19
 243 -114 243 -114 191 -51 c 0,20,21
 143 8 143 8 124 45 c 0,22,23
 97 100 97 100 97 210 c 0,24,25
 97 240 97 240 98 282 c 0,26,27
 99 348 99 348 100.5 413 c 128,-1,28
 102 478 102 478 111.5 520 c 128,-1,29
 121 562 121 562 190 649.5 c 128,-1,30
 259 737 259 737 315 776 c 1,31,-1
 256 758 l 1,32,33
 187 720 187 720 121 633 c 0,34,35
 75 573 75 573 56 538 c 0,36,37
 54 533 54 533 42 577 c 0,38,39
 29 625 29 625 25 625 c 0,40,41
 23 624 23 624 23 622 c 0,42,43
 26 602 26 602 26 513 c 0,44,45
 25 426 25 426 23 415 c 1,0,1
EndSplineSet
EndChar

StartChar: parenright
Encoding: 41 41 12
Width: 393
Flags: W
LayerCount: 2
Back
Fore
SplineSet
315 422 m 1,0,1
 315 424 315 424 315 39 c 0,2,3
 315 29 315 29 313 28 c 0,4,5
 311 28 311 28 300 75 c 128,-1,6
 289 122 289 122 286 122 c 0,7,8
 284 120 284 120 284 110 c 0,9,10
 271 70 271 70 269 65 c 0,11,12
 263 50 263 50 247 24 c 0,13,14
 203 -46 203 -46 133 -103 c 0,15,16
 70 -154 70 -154 18 -168 c 1,17,-1
 55 -137 l 2,18,19
 95 -107 95 -107 146 -44 c 0,20,21
 195 15 195 15 213 52 c 0,22,23
 241 108 241 108 241 218 c 0,24,25
 241 248 241 248 240 289 c 0,26,27
 238 355 238 355 237 420 c 128,-1,28
 236 485 236 485 226 527.5 c 128,-1,29
 216 570 216 570 147.5 657 c 128,-1,30
 79 744 79 744 22 783 c 1,31,-1
 82 765 l 1,32,33
 150 727 150 727 217 640 c 0,34,35
 263 580 263 580 282 545 c 0,36,37
 284 540 284 540 296 584 c 0,38,39
 309 632 309 632 313 632 c 0,40,41
 314 631 314 631 315 629 c 0,42,43
 311 609 311 609 312 520 c 0,44,45
 312 433 312 433 315 422 c 1,0,1
EndSplineSet
EndChar

StartChar: asterisk
Encoding: 42 42 13
Width: 525
Flags: W
LayerCount: 2
Back
Fore
SplineSet
250 336 m 0,0,1
 255 297 255 297 256 299 c 1,2,3
 258 277 258 277 248 261 c 0,4,5
 242 251 242 251 229.5 244 c 128,-1,6
 217 237 217 237 217 236 c 0,7,8
 217 232 217 232 233 232 c 0,9,10
 250 232 250 232 264.5 246 c 128,-1,11
 279 260 279 260 279 278 c 1,12,13
 279 270 279 270 271 341 c 0,14,15
 261 432 261 432 261 430 c 2,16,-1
 261 445 l 1,17,18
 268 441 268 441 362 401 c 0,19,20
 379 394 379 394 397 387 c 0,21,22
 423 375 423 375 426 358 c 128,-1,23
 429 341 429 341 431 323 c 0,24,25
 431 322 431 322 432 322 c 0,26,27
 434 322 434 322 437 325 c 0,28,29
 449 336 449 336 449 355 c 0,30,31
 449 383 449 383 426 396 c 0,32,33
 406 405 406 405 368 421 c 0,34,35
 336 433 336 433 285 457 c 1,36,-1
 273 464 l 1,37,38
 299 480 299 480 364 528 c 0,39,40
 395 552 395 552 393 552 c 1,41,42
 410 564 410 564 426 564 c 0,43,44
 438 564 438 564 450 558 c 0,45,46
 457 554 457 554 464 550 c 1,47,48
 465 553 465 553 467 555 c 0,49,50
 459 588 459 588 421 588 c 0,51,52
 409 588 409 588 399.5 581 c 128,-1,53
 390 574 390 574 349 544 c 0,54,55
 326 524 326 524 277 490 c 1,56,-1
 260 481 l 1,57,58
 260 515 260 515 250 592 c 0,59,60
 246 631 246 631 245 629 c 1,61,62
 242 652 242 652 252 667 c 0,63,64
 259 677 259 677 271 684 c 128,-1,65
 283 691 283 691 283 692 c 0,66,67
 283 697 283 697 268 697 c 0,68,69
 251 697 251 697 236.5 683 c 128,-1,70
 222 669 222 669 222 651 c 1,71,72
 222 659 222 659 230 588 c 0,73,74
 240 497 240 497 240 498 c 2,75,-1
 240 483 l 1,76,77
 206 502 206 502 139 530 c 0,78,79
 122 537 122 537 105 544 c 0,80,81
 78 556 78 556 75 573 c 128,-1,82
 72 590 72 590 70 608 c 0,83,84
 70 609 70 609 69 609 c 0,85,86
 67 609 67 609 65 606 c 0,87,88
 53 595 53 595 53 576 c 0,89,90
 53 548 53 548 75 535 c 0,91,92
 95 527 95 527 133 510 c 0,93,94
 165 498 165 498 216 474 c 1,95,-1
 228 467 l 1,96,97
 228 467 228 467 139 400 c 0,98,99
 108 377 108 377 110 377 c 1,100,101
 93 365 93 365 76 365 c 0,102,103
 65 365 65 365 52 371 c 0,104,105
 46 375 46 375 39 379 c 0,106,107
 37 376 37 376 36 373 c 0,108,109
 43 341 43 341 82 341 c 0,110,111
 93 341 93 341 103 348 c 128,-1,112
 113 355 113 355 154 385 c 0,113,114
 180 406 180 406 226 439 c 2,115,-1
 240 448 l 1,116,117
 241 413 241 413 250 336 c 0,0,1
253 648 m 0,118,119
 253 673 253 673 279 673 c 0,120,121
 304 673 304 673 304 648 c 0,122,123
 304 622 304 622 279 622 c 0,124,125
 253 622 253 622 253 648 c 0,118,119
92 561 m 256,126,127
 70 574 70 574 83 596 c 0,128,129
 96 617 96 617 117 605 c 0,130,131
 139 592 139 592 127 570 c 0,132,133
 114 548 114 548 92 561 c 256,126,127
88 375 m 256,134,135
 66 362 66 362 54 384 c 0,136,137
 41 406 41 406 63 419 c 0,138,139
 85 431 85 431 97 410 c 0,140,141
 110 388 110 388 88 375 c 256,134,135
247 280 m 256,142,143
 247 255 247 255 221 255 c 0,144,145
 196 255 196 255 196 280 c 256,146,147
 196 305 196 305 221 305 c 0,148,149
 247 305 247 305 247 280 c 256,142,143
408 369 m 0,150,151
 430 357 430 357 417 335 c 0,152,153
 405 313 405 313 383 326 c 0,154,155
 361 338 361 338 374 360 c 0,156,157
 386 382 386 382 408 369 c 0,150,151
414 553 m 256,158,159
 436 566 436 566 449 544 c 0,160,161
 461 522 461 522 439 509 c 0,162,163
 417 497 417 497 405 519 c 0,164,165
 392 540 392 540 414 553 c 256,158,159
EndSplineSet
EndChar

StartChar: zero
Encoding: 48 48 14
Width: 720
Flags: W
LayerCount: 2
Back
Fore
SplineSet
87 612 m 0,0,1
 30 487 30 487 30 366 c 0,2,3
 30 208 30 208 111 87 c 0,4,5
 182 -20 182 -20 291 -20 c 1,6,7
 295 7 295 7 359 445 c 0,8,9
 411 800 411 800 411 862 c 0,10,11
 411 878 411 878 408 878 c 0,12,13
 402 878 402 878 386 820 c 2,14,-1
 208 75 l 1,15,16
 201 82 201 82 193 90 c 0,17,18
 184 104 184 104 166 150 c 0,19,20
 129 253 129 253 129 339 c 0,21,22
 129 517 129 517 176 619 c 0,23,24
 222 715 222 715 297 715 c 1,25,-1
 297 748 l 1,26,27
 234 748 234 748 164 696 c 0,28,29
 105 651 105 651 87 612 c 0,0,1
633 106 m 0,30,31
 690 230 690 230 690 352 c 0,32,33
 690 509 690 509 609 631 c 0,34,35
 538 737 538 737 429 737 c 1,36,37
 426 710 426 710 362 273 c 0,38,39
 310 -83 310 -83 310 -145 c 0,40,41
 310 -160 310 -160 313 -160 c 0,42,43
 318 -160 318 -160 334 -102 c 2,44,-1
 512 643 l 1,45,46
 520 635 520 635 527 628 c 0,47,48
 537 614 537 614 554 567 c 0,49,50
 592 465 592 465 592 378 c 0,51,52
 592 201 592 201 541 99 c 0,53,54
 493 2 493 2 418 2 c 1,55,-1
 418 -31 l 1,56,57
 481 -31 481 -31 553 22 c 0,58,59
 616 67 616 67 633 106 c 0,30,31
EndSplineSet
EndChar

StartChar: one
Encoding: 49 49 15
Width: 720
Flags: W
LayerCount: 2
Back
Fore
SplineSet
237 -2 m 2,0,1
 233 -1 233 -1 232 0 c 0,2,3
 232 3 232 3 294 14.5 c 128,-1,4
 356 26 356 26 362 31 c 0,5,6
 385 47 385 47 385 100 c 2,7,-1
 385 599 l 2,8,9
 385 656 385 656 347 649 c 0,10,11
 342 648 342 648 301 629 c 128,-1,12
 260 610 260 610 254 610 c 0,13,14
 253 610 253 610 253 610 c 2,15,16
 254 612 254 612 257 615 c 2,17,-1
 277 638 l 1,18,-1
 431 745 l 1,19,-1
 488 723 l 2,20,21
 488 722 488 722 465.5 707.5 c 128,-1,22
 443 693 443 693 443 692 c 2,23,-1
 443 -2 l 1,24,-1
 237 -2 l 2,0,1
EndSplineSet
EndChar

StartChar: two
Encoding: 50 50 16
Width: 720
Flags: W
LayerCount: 2
Back
Fore
SplineSet
565 -24 m 1,0,-1
 624 35 l 1,1,-1
 624 192 l 2,2,3
 623 220 623 220 618 220 c 0,4,5
 611 220 611 220 595 158 c 0,6,7
 587 123 587 123 578 87 c 0,8,9
 573 73 573 73 545 62 c 128,-1,10
 517 51 517 51 490 51 c 2,11,-1
 382 51 l 1,12,-1
 290 -24 l 1,13,-1
 565 -24 l 1,0,-1
104 -80 m 2,14,-1
 189 15 l 1,15,16
 277 107 277 107 320 163 c 0,17,18
 349 205 349 205 379 247 c 0,19,20
 477 385 477 385 477 457 c 0,21,22
 477 497 477 497 462.5 541 c 128,-1,23
 448 585 448 585 428 607 c 0,24,25
 377 660 377 660 313 660 c 0,26,27
 279 660 279 660 239 631 c 0,28,29
 204 605 204 605 195 584 c 0,30,31
 194 582 194 582 166 486 c 0,32,33
 142 404 142 404 135 404 c 0,34,35
 132 404 132 404 132 419 c 2,36,-1
 133 545 l 1,37,38
 157 615 157 615 211 667 c 0,39,40
 278 732 278 732 361 732 c 0,41,42
 452 732 452 732 510 674 c 128,-1,43
 568 616 568 616 578 539 c 0,44,45
 582 509 582 509 582 486 c 0,46,47
 582 439 582 439 565 378 c 0,48,49
 559 351 559 351 552 324 c 0,50,51
 543 292 543 292 518 256 c 0,52,53
 487 210 487 210 421 143 c 1,54,55
 329 70 329 70 238 -4 c 0,56,57
 96 -115 96 -115 96 -96 c 0,58,59
 96 -91 96 -91 104 -80 c 2,14,-1
EndSplineSet
EndChar

StartChar: three
Encoding: 51 51 17
Width: 720
Flags: W
LayerCount: 2
Back
Fore
SplineSet
289 334 m 0,0,1
 284 334 284 334 273 313 c 128,-1,2
 262 292 262 292 258 292 c 1,3,-1
 258 374 l 1,4,5
 271 371 271 371 284 371 c 0,6,7
 342 371 342 371 396 420 c 0,8,9
 447 465 447 465 447 527 c 0,10,11
 447 590 447 590 447 584 c 1,12,13
 445 614 445 614 429 627 c 0,14,15
 409 644 409 644 375.5 657 c 128,-1,16
 342 670 342 670 316 670 c 0,17,18
 248 670 248 670 200 624 c 0,19,20
 191 616 191 616 175 545 c 0,21,22
 157 470 157 470 148 453 c 1,23,-1
 145 539 l 2,24,25
 148 551 148 551 148 562 c 0,26,27
 148 574 148 574 143.5 590.5 c 128,-1,28
 139 607 139 607 139 612 c 0,29,30
 139 628 139 628 157 643 c 0,31,32
 187 668 187 668 254 692.5 c 128,-1,33
 321 717 321 717 359 717 c 0,34,35
 432 717 432 717 481 678 c 0,36,37
 534 636 534 636 534 565 c 0,38,39
 534 513 534 513 496 468 c 0,40,41
 470 438 470 438 426 398 c 1,42,43
 428 398 428 398 400 380 c 0,44,45
 376 364 376 364 371 362 c 0,46,47
 315 334 315 334 289 334 c 0,0,1
468 270 m 0,48,49
 490 238 490 238 490 157 c 0,50,51
 490 91 490 91 453 44 c 0,52,53
 423 6 423 6 340 -8 c 0,54,55
 293 -16 293 -16 290 -16 c 0,56,57
 266 -16 266 -16 245.5 -5 c 128,-1,58
 225 6 225 6 220 39 c 0,59,60
 215 68 215 68 216 68 c 1,61,62
 214 68 214 68 212 62 c 0,63,64
 202 42 202 42 193 42 c 0,65,66
 180 42 180 42 167 85.5 c 128,-1,67
 154 129 154 129 153 129 c 0,68,69
 151 129 151 129 151 127 c 0,70,71
 142 101 142 101 142 76 c 0,72,73
 142 23 142 23 176 -12 c 128,-1,74
 210 -47 210 -47 260 -47 c 0,75,76
 405 -47 405 -47 493 31.5 c 128,-1,77
 581 110 581 110 581 215 c 0,78,79
 581 295 581 295 568 332 c 0,80,81
 548 386 548 386 487 414 c 1,82,83
 446 376 446 376 435 369 c 0,84,85
 410 352 410 352 358 337 c 1,86,87
 431 325 431 325 468 270 c 0,48,49
EndSplineSet
EndChar

StartChar: four
Encoding: 52 52 18
Width: 720
Flags: W
LayerCount: 2
Back
Fore
SplineSet
149 261 m 1,0,-1
 404 261 l 1,1,-1
 618 196 l 1,2,-1
 519 196 l 1,3,-1
 519 0 l 1,4,-1
 416 0 l 1,5,-1
 417 196 l 1,6,-1
 102 196 l 1,7,-1
 103 260 l 1,8,-1
 275 420 l 1,9,-1
 149 261 l 1,0,-1
453 728 m 1,10,-1
 567 743 l 1,11,-1
 519 693 l 1,12,-1
 520 255 l 1,13,-1
 417 287 l 1,14,-1
 417 615 l 1,15,-1
 193 408 l 1,16,-1
 453 728 l 1,10,-1
EndSplineSet
EndChar

StartChar: five
Encoding: 53 53 19
Width: 720
Flags: W
LayerCount: 2
Back
Fore
SplineSet
156 408 m 0,0,1
 157 410 157 410 177 459.5 c 128,-1,2
 197 509 197 509 199 512 c 2,3,-1
 199 705 l 1,4,-1
 528 705 l 1,5,6
 536 713 536 713 545.5 713.5 c 128,-1,7
 555 714 555 714 564 724 c 1,8,-1
 589 718 l 1,9,-1
 540 623 l 1,10,11
 514 562 514 562 494 564 c 2,12,-1
 245 616 l 1,13,-1
 245 454 l 1,14,-1
 184 328 l 1,15,16
 172 365 172 365 156 408 c 0,0,1
288 475 m 1,17,18
 337 477 337 477 409 447 c 128,-1,19
 481 417 481 417 506 383 c 0,20,21
 560 309 560 309 560 231 c 0,22,23
 560 109 560 109 474 28 c 0,24,25
 418 -24 418 -24 322 -24 c 0,26,27
 278 -24 278 -24 254 -10 c 0,28,29
 220 9 220 9 189 9 c 0,30,31
 176 9 176 9 160.5 5.5 c 128,-1,32
 145 2 145 2 142 2 c 0,33,34
 131 2 131 2 131 21 c 0,35,36
 131 45 131 45 190 150 c 0,37,38
 190 151 190 151 191 151 c 0,39,40
 193 151 193 151 207 110 c 0,41,42
 222 64 222 64 239 45 c 0,43,44
 275 5 275 5 309 5 c 0,45,46
 400 5 400 5 433 45 c 0,47,48
 480 101 480 101 480 181 c 0,49,50
 480 253 480 253 434.5 299 c 128,-1,51
 389 345 389 345 309 352 c 0,52,53
 292 354 292 354 247 309 c 0,54,55
 199 258 199 258 150 208 c 1,56,-1
 288 475 l 1,17,18
EndSplineSet
EndChar

StartChar: six
Encoding: 54 54 20
Width: 720
Flags: W
LayerCount: 2
Back
Fore
SplineSet
556 115 m 0,0,1
 543 68 543 68 473 30 c 0,2,3
 409 -4 409 -4 354 -4 c 0,4,5
 248 -4 248 -4 176 83 c 0,6,7
 95 181 95 181 95 327 c 0,8,9
 95 525 95 525 249 660 c 0,10,11
 378 773 378 773 560 773 c 1,12,-1
 484 565 l 1,13,14
 487 628 487 628 455 665 c 0,15,16
 427 697 427 697 386 697 c 0,17,18
 356 697 356 697 336 677 c 0,19,20
 260 601 260 601 224 439 c 1,21,22
 206 379 206 379 206 286 c 0,23,24
 206 176 206 176 249 114 c 0,25,26
 280 68 280 68 302 50 c 0,27,28
 330 27 330 27 365 27 c 0,29,30
 426 27 426 27 459 83 c 0,31,32
 475 110 475 110 480 122 c 0,33,34
 488 143 488 143 489 175 c 1,35,-1
 626 276 l 1,36,37
 580 198 580 198 556 115 c 0,0,1
446 172 m 1,38,39
 474 236 474 236 474 292 c 0,40,41
 474 321 474 321 466 341 c 0,42,43
 447 387 447 387 418 418 c 0,44,45
 385 453 385 453 350 453 c 0,46,47
 340 453 340 453 330 450 c 0,48,49
 300 441 300 441 271 394 c 0,50,51
 250 355 250 355 229 315 c 1,52,53
 233 353 233 353 237 390 c 0,54,55
 243 437 243 437 254 444 c 0,56,57
 275 458 275 458 317.5 473 c 128,-1,58
 360 488 360 488 381 488 c 0,59,60
 471 488 471 488 528 427 c 0,61,62
 552 401 552 401 568 359 c 0,63,64
 587 311 587 311 587 266 c 1,65,66
 556 245 556 245 524 225 c 0,67,68
 453 176 453 176 446 172 c 1,38,39
EndSplineSet
EndChar

StartChar: seven
Encoding: 55 55 21
Width: 720
Flags: W
LayerCount: 2
Back
Fore
SplineSet
550 599 m 1,0,-1
 341 -49 l 1,1,-1
 275 -49 l 1,2,-1
 458 506 l 2,3,4
 465 524 465 524 465 534 c 0,5,6
 465 561 465 561 413 567 c 1,7,-1
 550 599 l 1,0,-1
473 610 m 1,8,-1
 250 610 l 2,9,10
 243 610 243 610 221 611 c 0,11,12
 206 612 206 612 199 611 c 0,13,14
 190 609 190 609 182 604 c 128,-1,15
 174 599 174 599 164.5 593.5 c 128,-1,16
 155 588 155 588 140 564 c 1,17,-1
 106 564 l 1,18,-1
 142 645 l 2,19,20
 150 663 150 663 150 674 c 0,21,22
 150 693 150 693 131 699 c 1,23,-1
 578 699 l 1,24,-1
 578 684 l 2,25,26
 577 679 577 679 577 675 c 0,27,28
 577 645 577 645 614 641 c 1,29,-1
 473 610 l 1,8,-1
EndSplineSet
EndChar

StartChar: eight
Encoding: 56 56 22
Width: 720
Flags: W
LayerCount: 2
Back
Fore
SplineSet
459 198 m 0,0,1
 492 159 492 159 492 102 c 0,2,3
 492 44 492 44 457.5 12 c 128,-1,4
 423 -20 423 -20 365 -20 c 0,5,6
 308 -20 308 -20 266 28 c 0,7,8
 228 71 228 71 228 143 c 0,9,10
 228 190 228 190 304 318 c 0,11,12
 306 321 306 321 408 483 c 1,13,14
 381 465 381 465 291 366 c 0,15,16
 222 291 222 291 188 250 c 0,17,18
 143 197 143 197 143 129 c 0,19,20
 143 45 143 45 212 -6 c 0,21,22
 273 -51 273 -51 360 -51 c 0,23,24
 449 -51 449 -51 510 -4 c 0,25,26
 577 47 577 47 577 134 c 0,27,28
 577 203 577 203 538 255 c 0,29,30
 508 295 508 295 434 350 c 1,31,-1
 370 288 l 1,32,33
 416 255 416 255 435 232 c 0,34,35
 447 215 447 215 459 198 c 0,0,1
190 426 m 0,36,37
 150 479 150 479 150 541 c 0,38,39
 150 622 150 622 219 671 c 0,40,41
 280 713 280 713 365 713 c 0,42,43
 441 713 441 713 495 674 c 0,44,45
 556 630 556 630 556 556 c 0,46,47
 556 492 556 492 504.5 442 c 128,-1,48
 453 392 453 392 403 342 c 0,49,50
 312 254 312 254 284 238 c 1,51,52
 307 259 307 259 373 354 c 0,53,54
 408 406 408 406 443 457 c 0,55,56
 478 501 478 501 478 559 c 0,57,58
 478 618 478 618 442.5 650.5 c 128,-1,59
 407 683 407 683 348 683 c 0,60,61
 300 683 300 683 266.5 652.5 c 128,-1,62
 233 622 233 622 233 575 c 0,63,64
 233 530 233 530 250.5 508.5 c 128,-1,65
 268 487 268 487 339 444 c 1,66,-1
 260 359 l 1,67,68
 213 396 213 396 190 426 c 0,36,37
EndSplineSet
EndChar

StartChar: nine
Encoding: 57 57 23
Width: 620
Flags: W
LayerCount: 2
Back
Fore
SplineSet
89 586 m 0,0,1
 102 633 102 633 172 671 c 0,2,3
 236 705 236 705 291 705 c 0,4,5
 398 705 398 705 470 618 c 0,6,7
 551 519 551 519 551 374 c 0,8,9
 551 176 551 176 397 41 c 0,10,11
 268 -72 268 -72 85 -72 c 1,12,-1
 161 136 l 1,13,14
 159 73 159 73 191 36 c 0,15,16
 219 4 219 4 259 4 c 0,17,18
 290 4 290 4 310 24 c 0,19,20
 386 100 386 100 422 262 c 0,21,22
 439 322 439 322 439 415 c 0,23,24
 439 525 439 525 397 587 c 0,25,26
 366 633 366 633 344 651 c 0,27,28
 315 674 315 674 280 674 c 0,29,30
 219 674 219 674 186 618 c 0,31,32
 170 591 170 591 166 578 c 0,33,34
 158 557 158 557 157 526 c 1,35,-1
 16 434 l 1,36,37
 57 505 57 505 66 521 c 0,38,39
 78 547 78 547 89 586 c 0,0,1
200 529 m 1,40,41
 172 465 172 465 172 409 c 0,42,43
 172 380 172 380 180 360 c 0,44,45
 198 314 198 314 227 283 c 0,46,47
 260 248 260 248 296 248 c 0,48,49
 306 248 306 248 315 251 c 0,50,51
 346 260 346 260 374 307 c 0,52,53
 395 346 395 346 416 385 c 1,54,55
 412 348 412 348 408 311 c 0,56,57
 402 264 402 264 391 257 c 0,58,59
 371 243 371 243 328.5 228 c 128,-1,60
 286 213 286 213 264 213 c 0,61,62
 175 213 175 213 117 274 c 0,63,64
 94 299 94 299 77 342 c 0,65,66
 58 390 58 390 58 435 c 1,67,68
 90 456 90 456 121 476 c 0,69,70
 192 525 192 525 200 529 c 1,40,41
EndSplineSet
EndChar

StartChar: A
Encoding: 65 65 24
Width: 789
Flags: W
LayerCount: 2
Back
Fore
SplineSet
543 0 m 1,0,-1
 779 0 l 1,1,-1
 781 3 l 1,2,-1
 690 25 l 2,3,4
 680 26 680 26 665 41 c 1,5,6
 658 55 658 55 644 83 c 2,7,-1
 384 661 l 1,8,-1
 312 705 l 1,9,-1
 238 607 l 1,10,-1
 288 621 l 1,11,-1
 428 282 l 1,12,-1
 233 247 l 2,13,14
 229 244 229 244 234 241 c 2,15,-1
 447 227 l 1,16,-1
 543 0 l 1,0,-1
344 435 m 1,17,-1
 269 595 l 1,18,-1
 5 0 l 1,19,-1
 243 0 l 1,20,-1
 246 4 l 1,21,22
 217 6 217 6 181 10 c 1,23,24
 136 21 136 21 129 24 c 0,25,26
 107 34 107 34 107 61 c 0,27,28
 107 74 107 74 115 99 c 0,29,30
 166 219 166 219 263 457 c 0,31,32
 267 470 267 470 280 470 c 0,33,34
 308 470 308 470 338 432 c 0,35,36
 341 430 341 430 344 435 c 1,17,-1
EndSplineSet
EndChar

StartChar: B
Encoding: 66 66 25
Width: 743
Flags: W
LayerCount: 2
Back
Fore
SplineSet
608 309 m 0,0,1
 562 349 562 349 496 364 c 1,2,3
 555 379 555 379 585 402 c 0,4,5
 639 442 639 442 639 518 c 0,6,7
 639 520 639 520 641 520 c 0,8,9
 647 520 647 520 663 509.5 c 128,-1,10
 679 499 679 499 684 491 c 1,11,12
 680 573 680 573 637 616 c 0,13,14
 624 629 624 629 562 663 c 0,15,16
 539 676 539 676 474 689 c 2,17,-1
 441 695 l 2,18,19
 384 706 384 706 354 706 c 0,20,21
 231 703 231 703 117 683 c 1,22,-1
 63 721 l 1,23,-1
 112 597 l 1,24,25
 121 613 121 613 132 639 c 0,26,27
 141 662 141 662 145 662 c 0,28,29
 152 662 152 662 155 637 c 0,30,31
 158 621 158 621 161 593 c 2,32,-1
 161 378 l 1,33,-1
 270 388 l 1,34,-1
 270 628 l 2,35,36
 270 655 270 655 281 661 c 0,37,38
 288 665 288 665 320 665 c 0,39,40
 408 665 408 665 451 647 c 0,41,42
 542 608 542 608 542 523 c 0,43,44
 542 483 542 483 519.5 449.5 c 128,-1,45
 497 416 497 416 462 401 c 0,46,47
 437 389 437 389 372 384 c 2,48,-1
 73 357 l 2,49,50
 69 357 69 357 66 355 c 0,51,52
 66 354 66 354 73 354 c 0,53,54
 103 352 103 352 161 346 c 1,55,-1
 161 44 l 1,56,-1
 270 49 l 1,57,-1
 270 344 l 1,58,-1
 322 344 l 2,59,60
 562 344 562 344 562 192 c 0,61,62
 562 38 562 38 358 38 c 0,63,64
 336 38 336 38 239.5 34 c 128,-1,65
 143 30 143 30 137.5 29 c 128,-1,66
 132 28 132 28 72 14 c 0,67,68
 39 6 39 6 14 2 c 0,69,70
 12 1 12 1 11 0 c 2,71,-1
 405 0 l 2,72,73
 520 0 520 0 556 15 c 1,74,75
 614 47 614 47 644 76 c 0,76,77
 700 131 700 131 704 209 c 1,78,79
 699 202 699 202 683.5 191 c 128,-1,80
 668 180 668 180 661 180 c 0,81,82
 659 180 659 180 659 183 c 0,83,84
 664 261 664 261 608 309 c 0,0,1
EndSplineSet
EndChar

StartChar: C
Encoding: 67 67 26
Width: 656
Flags: W
LayerCount: 2
Back
Fore
SplineSet
394 23 m 0,0,1
 474 23 474 23 552 66 c 0,2,3
 600 94 600 94 619 169 c 1,4,-1
 664 125 l 1,5,6
 627 80 627 80 575 46 c 0,7,8
 486 -12 486 -12 380 -12 c 0,9,10
 238 -12 238 -12 128 78 c 0,11,12
 10 174 10 174 10 314 c 0,13,14
 10 355 10 355 28 402 c 0,15,16
 41 430 41 430 54 459 c 1,17,18
 59 414 59 414 65 369 c 0,19,20
 70 334 70 334 89.5 311 c 128,-1,21
 109 288 109 288 165 252 c 1,22,23
 181 154 181 154 236 93 c 0,24,25
 298 23 298 23 394 23 c 0,0,1
555 586 m 0,27,28
 555 605 555 605 548 613 c 0,29,30
 516 653 516 653 482 669 c 0,31,32
 454 683 454 683 371 683 c 0,33,34
 317 683 317 683 279 661 c 0,35,36
 245 642 245 642 208 595 c 0,37,38
 176 554 176 554 165 488 c 0,39,40
 156 440 156 440 156 348 c 0,41,42
 156 303 156 303 160 288 c 1,43,44
 74 380 74 380 46 501 c 1,45,46
 83 610 83 610 175 669 c 0,47,48
 263 727 263 727 383 727 c 0,49,50
 440 727 440 727 501 709 c 0,51,52
 523 703 523 703 577 682 c 0,53,54
 623 663 623 663 625 663 c 2,55,-1
 520 418 l 2,56,57
 517 418 517 418 517 418 c 1,58,59
 525 447 525 447 540 503.5 c 128,-1,26
 555 560 555 560 555 586 c 0,27,28
EndSplineSet
EndChar

StartChar: D
Encoding: 68 68 27
Width: 864
Flags: W
LayerCount: 2
Back
Fore
SplineSet
4 0 m 1,0,-1
 370 0 l 2,1,2
 666 0 666 0 757 200 c 0,3,4
 789 271 789 271 789 352 c 0,5,6
 789 429 789 429 768 478 c 1,7,-1
 829 452 l 1,8,9
 788 603 788 603 605 669 c 0,10,11
 492 709 492 709 407 709 c 0,12,13
 384 709 384 709 361 708 c 2,14,-1
 119 672 l 1,15,-1
 65 709 l 1,16,-1
 114 585 l 2,17,18
 117 587 117 587 130 628 c 0,19,20
 137 650 137 650 148 650 c 0,21,22
 166 650 166 650 166 592 c 2,23,-1
 166 59 l 1,24,-1
 287 77 l 1,25,-1
 287 615 l 2,26,27
 287 644 287 644 304 652 c 0,28,29
 314 658 314 658 348 658 c 0,30,31
 506 658 506 658 583 585 c 0,32,33
 665 508 665 508 665 352 c 0,34,35
 665 193 665 193 586 119 c 0,36,37
 513 51 513 51 331 48 c 1,38,-1
 4 0 l 1,0,-1
EndSplineSet
EndChar

StartChar: E
Encoding: 69 69 28
Width: 725
Flags: W
LayerCount: 2
Back
Fore
SplineSet
281 710 m 2,0,1
 226 710 226 710 131 675 c 1,2,-1
 73 698 l 1,3,-1
 132 583 l 1,4,5
 137 596 137 596 150 628 c 0,6,7
 159 651 159 651 164 651 c 0,8,9
 171 651 171 651 176 629 c 1,10,-1
 176 400 l 1,11,-1
 292 414 l 1,12,-1
 292 631 l 2,13,14
 292 653 292 653 298.5 660.5 c 128,-1,15
 305 668 305 668 327 668 c 2,16,-1
 444 668 l 2,17,18
 538 668 538 668 565 646 c 0,19,20
 584 632 584 632 603 596 c 0,21,22
 614 574 614 574 629 500 c 1,23,-1
 633 500 l 1,24,-1
 633 666 l 1,25,-1
 589 710 l 1,26,-1
 281 710 l 2,0,1
663 0 m 1,27,-1
 11 0 l 1,28,29
 11 0 11 0 12 2 c 0,30,31
 36 5 36 5 90 18 c 0,32,33
 152 33 152 33 159 40 c 0,34,35
 176 55 176 55 176 115 c 2,36,-1
 176 347 l 1,37,-1
 78 360 l 1,38,-1
 79 362 l 1,39,-1
 429 392 l 2,40,41
 486 397 486 397 505 401 c 0,42,43
 553 414 553 414 571 445 c 1,44,-1
 513 298 l 1,45,46
 498 338 498 338 479 346 c 0,47,48
 471 349 471 349 429 349 c 2,49,-1
 292 349 l 1,50,-1
 292 85 l 2,51,52
 292 65 292 65 312 44 c 1,53,-1
 465 44 l 2,54,55
 498 46 498 46 565 64 c 1,56,57
 590 76 590 76 632 132 c 0,58,59
 641 144 641 144 662.5 194 c 128,-1,60
 684 244 684 244 689 251 c 0,61,62
 692 255 692 255 693 251 c 256,63,64
 694 247 694 247 692 234 c 128,-1,65
 690 221 690 221 663 0 c 1,27,-1
EndSplineSet
EndChar

StartChar: F
Encoding: 70 70 29
Width: 614
Flags: W
LayerCount: 2
Back
Fore
SplineSet
381 2 m 1,0,1
 352 7 352 7 303 18 c 0,2,3
 258 31 258 31 246 40 c 0,4,5
 236 46 236 46 231 68 c 0,6,7
 227 86 227 86 227 105 c 2,8,-1
 227 350 l 1,9,-1
 370 350 l 2,10,11
 413 350 413 350 420 347 c 0,12,13
 439 339 439 339 455 299 c 1,14,-1
 516 454 l 2,15,16
 514 453 514 453 513 454 c 1,17,18
 477 410 477 410 446 402 c 0,19,20
 427 398 427 398 370 393 c 2,21,-1
 21 363 l 1,22,-1
 21 360 l 1,23,-1
 118 348 l 1,24,-1
 118 0 l 1,25,-1
 381 0 l 1,26,-1
 381 2 l 1,0,1
528 711 m 1,27,-1
 220 711 l 2,28,29
 169 711 169 711 72 675 c 1,30,-1
 14 698 l 1,31,-1
 73 581 l 1,32,33
 74 588 74 588 90 629 c 0,34,35
 99 651 99 651 105 651 c 0,36,37
 112 651 112 651 118 628 c 1,38,-1
 118 400 l 1,39,-1
 227 414 l 1,40,-1
 227 631 l 2,41,42
 227 654 227 654 233 661 c 128,-1,43
 239 668 239 668 261 668 c 2,44,-1
 385 668 l 2,45,46
 479 668 479 668 506 646 c 0,47,48
 524 632 524 632 543 596 c 0,49,50
 547 590 547 590 571 492 c 0,51,52
 572 489 572 489 573 495 c 2,53,-1
 574 665 l 1,54,-1
 528 711 l 1,27,-1
EndSplineSet
EndChar

StartChar: G
Encoding: 71 71 30
Width: 719
Flags: W
LayerCount: 2
Back
Fore
SplineSet
357 679 m 0,0,1
 242 677 242 677 178 602 c 0,2,3
 117 531 117 531 117 409 c 0,4,5
 117 350 117 350 132 285 c 1,6,7
 67 355 67 355 36 505 c 1,8,9
 127 728 127 728 363 725 c 0,10,11
 423 724 423 724 501 690 c 0,12,13
 572 660 572 660 570 659 c 1,14,15
 572 660 572 660 571 674 c 0,16,17
 570 690 570 690 565 699 c 0,18,19
 555 720 555 720 557 726 c 1,20,-1
 608 693 l 1,21,-1
 608 399 l 1,22,23
 569 573 569 573 486 638 c 0,24,25
 435 679 435 679 357 679 c 0,0,1
57 341 m 1,26,27
 69 283 69 283 133 243 c 1,28,29
 134 164 134 164 176 112 c 0,30,31
 244 30 244 30 369 30 c 0,32,33
 433 30 433 30 507 61 c 1,34,-1
 507 219 l 2,35,36
 507 273 507 273 492 285 c 0,37,38
 470 304 470 304 423 310 c 2,39,-1
 317 325 l 1,40,-1
 702 355 l 1,41,-1
 684 320 l 1,42,43
 649 317 649 317 637 297.5 c 128,-1,44
 625 278 625 278 625 239 c 2,45,-1
 625 10 l 1,46,47
 606 37 606 37 591 37 c 0,48,49
 573 37 573 37 531 19 c 0,50,51
 455 -14 455 -14 355 -14 c 0,52,53
 211 -14 211 -14 114 85 c 0,54,55
 61 138 61 138 41 205 c 0,56,57
 27 251 27 251 27 322 c 0,58,59
 27 390 27 390 43 453 c 1,60,61
 47 416 47 416 57 341 c 1,26,27
EndSplineSet
EndChar

StartChar: H
Encoding: 72 72 31
Width: 736
Flags: W
LayerCount: 2
Back
Fore
SplineSet
267 397 m 1,0,-1
 158 375 l 1,1,-1
 158 631 l 1,2,3
 148 653 148 653 143 653 c 0,4,5
 137 653 137 653 127 633 c 0,6,7
 113 602 113 602 110 584 c 1,8,-1
 60 713 l 1,9,-1
 109 675 l 1,10,-1
 204 708 l 1,11,-1
 308 708 l 1,12,-1
 267 662 l 1,13,-1
 267 397 l 1,0,-1
357 712 m 1,14,-1
 406 588 l 1,15,16
 411 608 411 608 422 632 c 0,17,18
 432 653 432 653 440 653 c 0,19,20
 445 653 445 653 458 633 c 1,21,-1
 458 418 l 1,22,-1
 62 322 l 1,23,-1
 158 322 l 1,24,-1
 158 42 l 1,25,26
 150 33 150 33 89 18 c 0,27,28
 53 9 53 9 11 2 c 1,29,-1
 11 0 l 1,30,-1
 267 0 l 1,31,-1
 267 322 l 1,32,-1
 672 418 l 1,33,-1
 571 418 l 1,34,-1
 571 661 l 1,35,-1
 611 708 l 1,36,-1
 507 708 l 1,37,-1
 413 674 l 1,38,-1
 357 712 l 1,14,-1
745 0 m 2,39,-1
 458 0 l 1,40,-1
 458 345 l 1,41,-1
 571 367 l 1,42,-1
 571 51 l 1,43,44
 589 34 589 34 654 19 c 0,45,46
 690 13 690 13 745 2 c 1,47,48
 745 2 745 2 745 0 c 2,39,-1
EndSplineSet
EndChar

StartChar: I
Encoding: 73 73 32
Width: 502
Flags: W
LayerCount: 2
Back
Fore
SplineSet
305 119 m 2,0,1
 302 62 302 62 334 37 c 0,2,3
 344 30 344 30 409 16 c 0,4,5
 468 4 468 4 486 3 c 1,6,-1
 487 -1 l 1,7,-1
 219 -1 l 1,8,-1
 219 591 l 2,9,10
 219 649 219 649 200 667 c 0,11,12
 191 675 191 675 117 690 c 0,13,14
 80 696 80 696 43 704 c 0,15,16
 43 706 43 706 47 708 c 2,17,-1
 305 707 l 1,18,-1
 305 119 l 2,0,1
421 667 m 2,19,20
 418 672 418 672 401 682 c 0,21,22
 380 690 380 690 369 690 c 0,23,24
 352 690 352 690 335.5 675 c 128,-1,25
 319 660 319 660 319 643 c 0,26,27
 319 592 319 592 376 587 c 1,28,-1
 421 471 l 1,29,-1
 421 667 l 2,19,20
EndSplineSet
EndChar

StartChar: J
Encoding: 74 74 33
Width: 500
Flags: W
LayerCount: 2
Back
Fore
SplineSet
214 14 m 1,0,-1
 214 565 l 2,1,2
 213 584 213 584 210 599 c 0,3,4
 204 634 204 634 196 641 c 0,5,6
 173 662 173 662 37 670 c 1,7,-1
 35 680 l 1,8,-1
 301 680 l 1,9,-1
 301 92 l 1,10,11
 291 47 291 47 279 16 c 1,12,13
 253 -32 253 -32 187 -32 c 0,14,15
 168 -32 168 -32 127 -27 c 0,16,17
 106 -24 106 -24 87.5 -3 c 128,-1,18
 69 18 69 18 72 38 c 0,19,20
 72 40 72 40 79 66.5 c 128,-1,21
 86 93 86 93 88 94 c 1,22,23
 86 90 86 90 90 77 c 0,24,25
 95 61 95 61 93.5 43 c 128,-1,26
 92 25 92 25 128 14 c 0,27,28
 155 6 155 6 179 6 c 0,29,30
 195 6 195 6 214 14 c 1,0,-1
443 645 m 1,31,32
 419 675 419 675 394 675 c 0,33,34
 387 675 387 675 379 673 c 0,35,36
 363 669 363 669 352 653.5 c 128,-1,37
 341 638 341 638 341 621 c 0,38,39
 341 570 341 570 398 564 c 1,40,-1
 443 447 l 1,41,-1
 443 645 l 1,31,32
EndSplineSet
EndChar

StartChar: K
Encoding: 75 75 34
Width: 744
Flags: W
LayerCount: 2
Back
Fore
SplineSet
197 708 m 1,0,-1
 150 693 l 1,1,-1
 98 721 l 1,2,-1
 147 597 l 1,3,4
 150 602 150 602 167 640 c 0,5,6
 176 658 176 658 181 658 c 0,7,8
 191 658 191 658 191 592 c 2,9,-1
 191 325 l 1,10,-1
 297 435 l 1,11,-1
 297 708 l 1,12,-1
 197 708 l 1,0,-1
602 51 m 2,13,-1
 351 328 l 1,14,-1
 297 292 l 1,15,-1
 297 0 l 1,16,-1
 30 0 l 2,17,18
 24 0 24 0 54 6 c 0,19,20
 99 15 99 15 124 22 c 0,21,22
 165 33 165 33 172 42 c 0,23,24
 191 69 191 69 191 128 c 2,25,-1
 191 234 l 1,26,-1
 89 177 l 1,27,-1
 519 607 l 2,28,29
 523 614 523 614 455 715 c 1,30,-1
 677 586 l 1,31,-1
 394 363 l 1,32,-1
 732 0 l 1,33,-1
 468 0 l 2,34,35
 469 0 469 0 532 13 c 0,36,37
 608 29 608 29 608 44 c 0,38,39
 608 48 608 48 602 51 c 2,13,-1
EndSplineSet
EndChar

StartChar: L
Encoding: 76 76 35
Width: 718
Flags: W
LayerCount: 2
Back
Fore
SplineSet
296 708 m 1,0,-1
 224 708 l 1,1,-1
 185 685 l 1,2,-1
 104 698 l 1,3,-1
 153 574 l 1,4,5
 163 590 163 590 174 616 c 0,6,7
 181 634 181 634 187 634 c 0,8,9
 195 634 195 634 199 608 c 0,10,11
 202 586 202 586 201 573 c 2,12,-1
 201 77 l 1,13,-1
 296 77 l 1,14,-1
 296 708 l 1,0,-1
423 42 m 0,15,16
 458 42 458 42 486 44 c 0,17,18
 554 48 554 48 575 57 c 0,19,20
 626 79 626 79 657 112 c 0,21,22
 670 127 670 127 742 224 c 1,23,-1
 656 0 l 1,24,-1
 21 0 l 2,25,26
 54 3 54 3 116 18.5 c 128,-1,27
 178 34 178 34 186 42 c 1,28,29
 199 40 199 40 423 42 c 0,15,16
432 686 m 2,30,31
 432 698 432 698 410 705 c 0,32,33
 393 710 393 710 379 710 c 0,34,35
 362 709 362 709 346 694.5 c 128,-1,36
 330 680 330 680 330 663 c 0,37,38
 330 611 330 611 387 606 c 1,39,-1
 432 490 l 1,40,-1
 432 686 l 2,30,31
EndSplineSet
EndChar

StartChar: M
Encoding: 77 77 36
Width: 997
Flags: W
LayerCount: 2
Back
Fore
SplineSet
547 -46 m 1,0,-1
 171 707 l 1,1,-1
 106 707 l 1,2,-1
 31 682 l 1,3,-1
 -22 714 l 1,4,-1
 27 589 l 1,5,6
 35 607 35 607 43 625 c 0,7,8
 57 654 57 654 62 654 c 0,9,10
 68 654 68 654 72 626 c 0,11,12
 77 587 77 587 77 585 c 2,13,-1
 77 0 l 1,14,-1
 311 0 l 2,15,16
 279 3 279 3 219 18.5 c 128,-1,17
 159 34 159 34 151 42 c 0,18,19
 125 69 125 69 125 157 c 2,20,-1
 125 584 l 1,21,-1
 332 130 l 1,22,-1
 547 -46 l 1,0,-1
750 116 m 2,23,24
 750 57 750 57 767 41 c 0,25,26
 778 31 778 31 886 17 c 0,27,28
 986 3 986 3 982 1 c 2,29,-1
 631 1 l 1,30,-1
 631 590 l 1,31,-1
 459 227 l 1,32,-1
 416 306 l 1,33,-1
 620 704 l 1,34,-1
 749 704 l 1,35,-1
 750 116 l 2,23,24
EndSplineSet
EndChar

StartChar: N
Encoding: 78 78 37
Width: 799
Flags: W
LayerCount: 2
Back
Fore
SplineSet
731 0 m 1,0,-1
 524 95 l 1,1,-1
 106 611 l 1,2,3
 98 657 98 657 86 657 c 0,4,5
 80 657 80 657 67 629 c 0,6,7
 50 593 50 593 50 593 c 1,8,-1
 0 717 l 1,9,-1
 51 683 l 1,10,-1
 171 712 l 1,11,-1
 731 0 l 1,0,-1
156 160 m 2,12,-1
 156 501 l 1,13,-1
 106 563 l 1,14,-1
 106 -1 l 1,15,-1
 331 -1 l 2,16,17
 338 0 338 0 338 2 c 2,18,19
 338 2 338 2 266 21 c 0,20,21
 189 41 189 41 172.5 69.5 c 128,-1,22
 156 98 156 98 156 160 c 2,12,-1
576 257 m 1,23,-1
 631 181 l 1,24,-1
 631 551 l 2,25,26
 631 633 631 633 650 657 c 0,27,28
 665 676 665 676 762 689 c 0,29,30
 856 701 856 701 856 704 c 0,31,32
 856 706 856 706 843 708 c 2,33,-1
 576 709 l 1,34,-1
 576 257 l 1,23,-1
EndSplineSet
EndChar

StartChar: O
Encoding: 79 79 38
Width: 720
Flags: W
LayerCount: 2
Back
Fore
SplineSet
461 -7 m 0,0,1
 407 -33 407 -33 342 -33 c 256,2,3
 277 -33 277 -33 206 -8 c 1,4,5
 225 -15 225 -15 248 -15 c 0,6,7
 316 -15 316 -15 391 34 c 0,8,9
 474 87 474 87 524 224 c 0,10,11
 556 312 556 312 556 381 c 0,12,13
 556 422 556 422 545 457 c 0,14,15
 522 532 522 532 404 604 c 1,16,17
 580 540 580 540 622 443 c 0,18,19
 650 380 650 380 650 313 c 0,20,21
 650 251 650 251 626 187 c 0,22,23
 625 184 625 184 628 184 c 0,24,25
 633 184 633 184 653.5 193.5 c 128,-1,26
 674 203 674 203 678 203 c 0,27,28
 680 203 680 203 679 200 c 0,29,30
 637 110 637 110 571 57 c 0,31,32
 537 30 537 30 461 -7 c 0,0,1
231 642 m 0,33,34
 286 669 286 669 351 669 c 256,35,36
 416 669 416 669 485 643 c 1,37,38
 469 647 469 647 450 647 c 0,39,40
 372 647 372 647 301 601 c 0,41,42
 218 548 218 548 168 411 c 0,43,44
 136 324 136 324 136 254 c 0,45,46
 136 213 136 213 147 178 c 0,47,48
 170 103 170 103 288 32 c 1,49,50
 110 96 110 96 68 193 c 0,51,52
 42 252 42 252 41 316 c 0,53,54
 41 380 41 380 66 448 c 0,55,56
 67 451 67 451 63 451 c 256,57,58
 59 451 59 451 38.5 441.5 c 128,-1,59
 18 432 18 432 14 432 c 0,60,61
 11 432 11 432 13 435 c 0,62,63
 54 525 54 525 121 578 c 0,64,65
 155 605 155 605 231 642 c 0,33,34
EndSplineSet
EndChar

StartChar: P
Encoding: 80 80 39
Width: 569
Flags: W
LayerCount: 2
Back
Fore
SplineSet
195 280 m 1,0,-1
 195 114 l 2,1,2
 195 62 195 62 218 40 c 0,3,4
 226 32 226 32 286 17.5 c 128,-1,5
 346 3 346 3 378 0 c 2,6,-1
 113 0 l 1,7,-1
 113 276 l 1,8,-1
 -13 276 l 1,9,10
 128 316 128 316 300 369 c 1,11,12
 344 387 344 387 374 431.5 c 128,-1,13
 404 476 404 476 404 524 c 0,14,15
 404 603 404 603 380 631 c 0,16,17
 350 667 350 667 263 667 c 0,18,19
 219 667 219 667 207 659.5 c 128,-1,20
 195 652 195 652 195 629 c 2,21,-1
 195 384 l 1,22,-1
 113 362 l 1,23,-1
 113 592 l 1,24,25
 109 612 109 612 104 632 c 0,26,27
 98 661 98 661 89 661 c 0,28,29
 83 661 83 661 70 632 c 0,30,31
 61 614 61 614 53 596 c 1,32,-1
 4 720 l 1,33,-1
 58 683 l 1,34,-1
 188 710 l 1,35,-1
 340 710 l 2,36,37
 414 710 414 710 476 645.5 c 128,-1,38
 538 581 538 581 549 499 c 1,39,40
 545 499 545 499 541 500 c 0,41,42
 533 507 533 507 523.5 515 c 128,-1,43
 514 523 514 523 510 523 c 0,44,45
 508 522 508 522 508 520 c 0,46,47
 508 361 508 361 315 301 c 1,48,-1
 195 280 l 1,0,-1
EndSplineSet
EndChar

StartChar: Q
Encoding: 81 81 40
Width: 713
Flags: W
LayerCount: 2
Back
Fore
SplineSet
457 48 m 1,0,1
 398 -28 398 -28 315 -28 c 1,2,3
 390 -28 390 -28 417 -24 c 0,4,5
 465 -17 465 -17 503 12 c 1,6,-1
 668 -77 l 1,7,-1
 554 59 l 1,8,9
 613 121 613 121 635 157 c 0,10,11
 680 230 680 230 688 329 c 0,12,13
 689 331 689 331 687 331 c 0,14,15
 684 331 684 331 666 313.5 c 128,-1,16
 648 296 648 296 645 296 c 0,17,18
 643 296 643 296 643 298 c 0,19,20
 643 444 643 444 554 537 c 0,21,22
 481 614 481 614 292 614 c 1,23,24
 427 587 427 587 475 524 c 0,25,26
 534 445 534 445 534 298 c 0,27,28
 534 213 534 213 533 197 c 0,29,30
 530 148 530 148 514 116 c 1,31,-1
 378 274 l 1,32,-1
 238 91 l 1,33,34
 212 104 212 104 196 126 c 0,35,36
 136 205 136 205 136 352 c 0,37,38
 136 497 136 497 196 576 c 0,39,40
 273 678 273 678 355 678 c 1,41,42
 200 678 200 678 116 591 c 0,43,44
 57 530 57 530 35 493 c 0,45,46
 -10 420 -10 420 -18 321 c 0,47,48
 -18 319 -18 319 -17 319 c 0,49,50
 -14 319 -14 319 4 336.5 c 128,-1,51
 22 354 22 354 25 354 c 0,52,53
 27 354 27 354 27 352 c 0,54,55
 27 206 27 206 116 113 c 0,56,57
 189 36 189 36 378 36 c 1,58,59
 313 49 313 49 264 74 c 1,60,-1
 329 125 l 1,61,-1
 457 48 l 1,0,1
EndSplineSet
EndChar

StartChar: R
Encoding: 82 82 41
Width: 763
Flags: W
LayerCount: 2
Back
Fore
SplineSet
268 292 m 1,0,-1
 189 278 l 1,1,-1
 189 112 l 2,2,3
 189 60 189 60 211 38 c 0,4,5
 219 30 219 30 279 15.5 c 128,-1,6
 339 1 339 1 372 -2 c 2,7,-1
 106 -2 l 1,8,-1
 106 274 l 1,9,-1
 -19 274 l 1,10,11
 152 324 152 324 356 387 c 1,12,13
 442 422 442 422 442 519 c 0,14,15
 442 665 442 665 257 665 c 0,16,17
 213 665 213 665 201 657.5 c 128,-1,18
 189 650 189 650 189 627 c 2,19,-1
 189 382 l 1,20,-1
 110 360 l 1,21,-1
 110 590 l 1,22,23
 105 610 105 610 100 631 c 0,24,25
 91 658 91 658 83 658 c 0,26,27
 76 658 76 658 63 630 c 0,28,29
 55 612 55 612 46 594 c 1,30,-1
 -3 718 l 1,31,-1
 52 681 l 1,32,-1
 182 708 l 1,33,-1
 397 708 l 2,34,35
 470 708 470 708 530 644 c 128,-1,36
 590 580 590 580 601 497 c 1,37,38
 598 497 598 497 594 498 c 0,39,40
 586 505 586 505 576 513 c 128,-1,41
 566 521 566 521 563 521 c 0,42,43
 561 520 561 520 561 518 c 0,44,45
 561 441 561 441 522 395 c 0,46,47
 481 346 481 346 386 317 c 1,48,-1
 588 67 l 2,49,50
 605 46 605 46 660 23 c 0,51,52
 710 1 710 1 741 -2 c 2,53,-1
 504 -2 l 1,54,-1
 268 292 l 1,0,-1
EndSplineSet
EndChar

StartChar: S
Encoding: 83 83 42
Width: 575
Flags: W
LayerCount: 2
Back
Fore
SplineSet
343 384 m 2,0,1
 403 359 403 359 472 271 c 0,2,3
 508 225 508 225 508 165 c 0,4,5
 508 79 508 79 444 23 c 128,-1,6
 380 -33 380 -33 282 -33 c 0,7,8
 189 -33 189 -33 114 41 c 1,9,10
 121 24 121 24 140 -19 c 1,11,-1
 56 -19 l 1,12,13
 30 172 30 172 27.5 189 c 128,-1,14
 25 206 25 206 9 293 c 1,15,16
 47 191 47 191 123 108 c 0,17,18
 206 17 206 17 278 17 c 0,19,20
 399 17 399 17 399 129 c 0,21,22
 399 214 399 214 337 296 c 2,23,-1
 238 428 l 1,24,-1
 343 384 l 2,0,1
166 351 m 2,25,26
 55 398 55 398 55 516 c 0,27,28
 55 600 55 600 110.5 652 c 128,-1,29
 166 704 166 704 252 704 c 0,30,31
 278 704 278 704 398 668 c 0,32,33
 426 659 426 659 426 674 c 0,34,35
 426 679 426 679 421 686 c 0,36,37
 417 690 417 690 379 694 c 0,38,39
 351 698 351 698 313 703 c 1,40,-1
 436 711 l 1,41,-1
 464 675 l 1,42,-1
 499 359 l 1,43,44
 486 413 486 413 446 501 c 0,45,46
 401 597 401 597 374 619 c 0,47,48
 335 651 335 651 264 651 c 0,49,50
 211 651 211 651 183 628 c 0,51,52
 147 597 147 597 145 553 c 0,53,54
 144 520 144 520 171 480 c 0,55,56
 192 452 192 452 212 424 c 2,57,-1
 310 290 l 1,58,-1
 166 351 l 2,25,26
EndSplineSet
EndChar

StartChar: T
Encoding: 84 84 43
Width: 653
Flags: W
LayerCount: 2
Back
Fore
SplineSet
248 110 m 2,0,1
 248 57 248 57 232 39 c 0,2,3
 224 31 224 31 154.5 16 c 128,-1,4
 85 1 85 1 48 -1 c 2,5,-1
 560 -1 l 2,6,7
 524 1 524 1 455 15 c 0,8,9
 382 30 382 30 374 37 c 0,10,11
 350 57 350 57 350 110 c 2,12,-1
 350 450 l 1,13,-1
 306 318 l 1,14,-1
 248 450 l 1,15,-1
 248 110 l 2,0,1
248 633 m 1,16,-1
 189 661 l 2,17,18
 169 669 169 669 149 669 c 0,19,20
 111 669 111 669 68 635 c 0,21,22
 36 609 36 609 20 524 c 2,23,-1
 1 389 l 1,24,-1
 1 709 l 1,25,-1
 603 709 l 1,26,-1
 603 393 l 1,27,-1
 584 524 l 1,28,29
 565 610 565 610 536 635 c 0,30,31
 498 668 498 668 454 668 c 0,32,33
 434 668 434 668 414 661 c 2,34,-1
 342 633 l 1,35,-1
 363 583 l 1,36,-1
 302 382 l 1,37,-1
 230 579 l 1,38,-1
 248 633 l 1,16,-1
EndSplineSet
EndChar

StartChar: U
Encoding: 85 85 44
Width: 776
Flags: W
LayerCount: 2
Back
Fore
SplineSet
288 687 m 1,0,-1
 288 207 l 2,1,2
 288 134 288 134 310 97 c 0,3,4
 338 51 338 51 363 33 c 0,5,6
 396 10 396 10 451 10 c 0,7,8
 555 10 555 10 625 147 c 1,9,10
 625 306 625 306 624 531 c 0,11,12
 623 615 623 615 602 641 c 1,13,14
 571 666 571 666 465 683 c 1,15,-1
 465 690 l 1,16,-1
 685 690 l 1,17,-1
 685 -16 l 2,18,19
 685 -19 685 -19 686 -22 c 0,20,21
 684 -33 684 -33 678 -33 c 0,22,23
 662 -33 662 -33 623 61 c 1,24,25
 586 12 586 12 555 -8 c 0,26,27
 506 -38 506 -38 427 -38 c 0,28,29
 290 -38 290 -38 225 23 c 0,30,31
 157 85 157 85 157 220 c 2,32,-1
 157 552 l 1,33,34
 143 635 143 635 132 635 c 0,35,36
 126 635 126 635 113 607 c 0,37,38
 97 571 97 571 96 571 c 2,39,-1
 47 695 l 1,40,-1
 102 658 l 1,41,-1
 196 687 l 1,42,-1
 288 687 l 1,0,-1
EndSplineSet
EndChar

StartChar: V
Encoding: 86 86 45
Width: 676
Flags: W
LayerCount: 2
Back
Fore
SplineSet
428 690 m 1,0,-1
 477 566 l 1,1,2
 487 582 487 582 498 609 c 0,3,4
 507 632 507 632 516 632 c 0,5,6
 524 632 524 632 526.5 609.5 c 128,-1,7
 529 587 529 587 527 551 c 0,8,9
 524 510 524 510 518 496 c 2,10,-1
 408 173 l 1,11,-1
 441 89 l 1,12,-1
 677 714 l 1,13,-1
 478 655 l 1,14,-1
 428 690 l 1,0,-1
-19 683 m 1,15,-1
 30 559 l 1,16,17
 38 571 38 571 44 594 c 0,18,19
 48 606 48 606 54 606 c 0,20,21
 62 606 62 606 77 576 c 0,22,23
 86 557 86 557 96 537 c 2,24,-1
 292 89 l 1,25,-1
 412 -38 l 1,26,-1
 575 82 l 1,27,-1
 434 38 l 1,28,-1
 143 692 l 1,29,-1
 36 646 l 1,30,-1
 -19 683 l 1,15,-1
EndSplineSet
EndChar

StartChar: W
Encoding: 87 87 46
Width: 962
Flags: W
LayerCount: 2
Back
Fore
SplineSet
-31 691 m 1,0,-1
 23 571 l 1,1,2
 25 577 25 577 38 602 c 0,3,4
 40 607 40 607 44 607 c 0,5,6
 57 607 57 607 74 559 c 2,7,-1
 259 57 l 1,8,-1
 412 -30 l 1,9,-1
 126 709 l 1,10,-1
 27 651 l 1,11,-1
 -31 691 l 1,0,-1
376 157 m 1,12,-1
 267 414 l 1,13,14
 286 388 286 388 305 362 c 0,15,16
 337 323 337 323 360 323 c 0,17,18
 371 323 371 323 380 331 c 0,19,20
 401 348 401 348 444 483 c 1,21,-1
 394 611 l 2,22,23
 382 640 382 640 317 654 c 0,24,25
 263 664 263 664 209 674 c 0,26,27
 195 677 195 677 195 682 c 0,28,29
 195 685 195 685 198 687 c 2,30,-1
 721 687 l 1,31,32
 730 680 730 680 707 677 c 0,33,34
 604 664 604 664 587 659 c 0,35,36
 523 640 523 640 523 590 c 0,37,38
 523 568 523 568 535 539 c 2,39,-1
 714 117 l 1,40,-1
 714 -21 l 1,41,-1
 598 95 l 1,42,-1
 470 419 l 1,43,-1
 376 157 l 1,12,-1
982 723 m 1,44,-1
 928 603 l 2,45,46
 927 610 927 610 914 635 c 1,47,48
 904 644 904 644 899 644 c 0,49,50
 892 644 892 644 887.5 628.5 c 128,-1,51
 883 613 883 613 879 598 c 2,52,-1
 728 186 l 1,53,-1
 685 280 l 1,54,-1
 870 745 l 1,55,-1
 921 685 l 1,56,-1
 982 723 l 1,44,-1
EndSplineSet
EndChar

StartChar: X
Encoding: 88 88 47
Width: 825
Flags: W
LayerCount: 2
Back
Fore
SplineSet
134 710 m 1,0,-1
 41 671 l 1,1,-1
 -13 708 l 1,2,3
 12 638 12 638 36 584 c 1,4,5
 45 597 45 597 56 627 c 0,6,7
 65 650 65 650 75 650 c 0,8,9
 80 650 80 650 84 645 c 0,10,11
 150 573 150 573 299 376 c 1,12,-1
 367 459 l 1,13,-1
 182 709 l 1,14,-1
 134 710 l 1,0,-1
462 448 m 1,15,16
 394 369 394 369 326 289 c 0,17,18
 222 167 222 167 175 97 c 0,19,20
 158 72 158 72 158 56 c 0,21,22
 158 36 158 36 185 26 c 0,23,24
 197 22 197 22 317 4 c 1,25,-1
 317 0 l 1,26,-1
 12 0 l 1,27,-1
 462 448 l 1,15,16
812 0 m 1,28,-1
 812 4 l 1,29,30
 720 12 720 12 679 32 c 1,31,32
 592 141 592 141 421 362 c 1,33,-1
 353 280 l 1,34,35
 451 152 451 152 565 0 c 1,36,-1
 812 0 l 1,28,-1
661 676 m 1,37,-1
 249 272 l 1,38,-1
 507 588 l 2,39,40
 532 623 532 623 532 639 c 0,41,42
 532 644 532 644 527 642 c 0,43,44
 503 636 503 636 481 603 c 1,45,-1
 426 715 l 1,46,-1
 487 667 l 1,47,-1
 541 723 l 1,48,-1
 661 680 l 1,49,-1
 661 676 l 1,37,-1
EndSplineSet
EndChar

StartChar: Y
Encoding: 89 89 48
Width: 770
Flags: W
LayerCount: 2
Back
Fore
SplineSet
308 292 m 1,0,-1
 308 129 l 2,1,2
 308 59 308 59 291 42 c 0,3,4
 287 38 287 38 92 7 c 1,5,-1
 92 0 l 1,6,-1
 616 0 l 1,7,-1
 616 7 l 1,8,9
 531 20 531 20 437 39 c 1,10,11
 402 68 402 68 402 109 c 2,12,-1
 402 289 l 1,13,14
 408 318 408 318 414 347 c 0,15,16
 423 387 423 387 445 414 c 0,17,18
 538 531 538 531 554 550 c 0,19,20
 659 671 659 671 710 687 c 1,21,-1
 825 713 l 1,22,-1
 825 717 l 1,23,-1
 588 717 l 1,24,-1
 506 676 l 1,25,-1
 444 737 l 1,26,-1
 491 601 l 2,27,28
 493 604 493 604 513 618 c 128,-1,29
 533 632 533 632 540 632 c 0,30,31
 543 632 543 632 543 629 c 0,32,33
 543 623 543 623 534 608 c 0,34,35
 528 597 528 597 513 580 c 0,36,37
 501 567 501 567 502 565 c 2,38,-1
 188 251 l 1,39,-1
 308 292 l 1,0,-1
125 717 m 1,40,-1
 391 717 l 1,41,-1
 391 713 l 1,42,43
 218 678 218 678 218 654 c 0,44,45
 218 638 218 638 237 610 c 2,46,-1
 337 452 l 1,47,-1
 249 365 l 1,48,-1
 103 594 l 2,49,50
 74 641 74 641 63 641 c 0,51,52
 55 641 55 641 49 628 c 0,53,54
 39 610 39 610 35 597 c 1,55,-1
 -19 716 l 1,56,-1
 39 677 l 1,57,-1
 125 717 l 1,40,-1
EndSplineSet
EndChar

StartChar: Z
Encoding: 90 90 49
Width: 713
Flags: W
LayerCount: 2
Back
Fore
SplineSet
80 725 m 1,0,1
 53 505 53 505 26 360 c 1,2,-1
 33 360 l 1,3,4
 71 483 71 483 120 620 c 1,5,6
 149 655 149 655 252 667 c 2,7,-1
 711 725 l 1,8,-1
 80 725 l 1,0,1
227 130 m 1,9,-1
 597 589 l 1,10,-1
 444 679 l 1,11,-1
 485 600 l 1,12,-1
 120 134 l 1,13,-1
 267 48 l 1,14,-1
 227 130 l 1,9,-1
539 73 m 2,15,16
 569 77 569 77 682 288 c 1,17,-1
 690 288 l 1,18,-1
 597 0 l 1,19,-1
 30 0 l 1,20,-1
 26 5 l 1,21,-1
 539 73 l 2,15,16
337 614 m 0,22,23
 337 637 337 637 352.5 652.5 c 128,-1,24
 368 668 368 668 390 668 c 0,25,26
 413 668 413 668 428.5 652.5 c 128,-1,27
 444 637 444 637 444 614 c 0,28,29
 444 592 444 592 428.5 576 c 128,-1,30
 413 560 413 560 390 560 c 0,31,32
 368 560 368 560 352.5 576 c 128,-1,33
 337 592 337 592 337 614 c 0,22,23
265 123 m 256,34,35
 265 145 265 145 280.5 161 c 128,-1,36
 296 177 296 177 319 177 c 0,37,38
 341 177 341 177 356.5 161 c 128,-1,39
 372 145 372 145 372 123 c 256,40,41
 372 101 372 101 356.5 85 c 128,-1,42
 341 69 341 69 319 69 c 0,43,44
 296 69 296 69 280.5 85 c 128,-1,45
 265 101 265 101 265 123 c 256,34,35
EndSplineSet
EndChar

StartChar: backslash
Encoding: 92 92 50
Width: 397
Flags: W
LayerCount: 2
Back
Fore
SplineSet
100 741 m 1,0,1
 126 689 126 689 187 516 c 0,2,3
 252 328 252 328 286 253 c 0,4,5
 344 122 344 122 390 106 c 1,6,-1
 317 -53 l 1,7,8
 298 33 298 33 279 120 c 0,9,10
 230 319 230 319 176 442 c 0,11,12
 101 612 101 612 29 600 c 1,13,-1
 100 741 l 1,0,1
EndSplineSet
EndChar

StartChar: a
Encoding: 97 97 51
Width: 541
Flags: W
LayerCount: 2
Back
Fore
SplineSet
408 351 m 1,0,-1
 408 131 l 2,1,2
 408 43 408 43 422 43 c 0,3,4
 426 43 426 43 431.5 50 c 128,-1,5
 437 57 437 57 437 161 c 1,6,-1
 474 54 l 1,7,8
 449 9 449 9 425 0 c 1,9,-1
 248 0 l 1,10,11
 289 13 289 13 304 33 c 1,12,-1
 304 319 l 1,13,14
 106 254 106 254 106 149 c 0,15,16
 106 41 106 41 275 41 c 1,17,18
 183 -10 183 -10 137 -10 c 0,19,20
 89 -10 89 -10 49 29 c 0,21,22
 13 64 13 64 13 117 c 0,23,24
 13 201 13 201 96 256 c 0,25,26
 120 272 120 272 261 333 c 0,27,28
 395 390 395 390 480 422 c 1,29,30
 441 391 441 391 435 386 c 0,31,32
 418 370 418 370 408 351 c 1,0,-1
398 478 m 0,33,34
 363 542 363 542 241 542 c 0,35,36
 177 542 177 542 104 451 c 0,37,38
 98 444 98 444 88 444 c 0,39,40
 70 444 70 444 54 461 c 1,41,42
 54 461 54 461 54 316 c 1,43,44
 75 404 75 404 163 484 c 1,45,46
 201 508 201 508 215 508 c 0,47,48
 252 508 252 508 266 505 c 0,49,50
 287 500 287 500 296 482 c 0,51,52
 308 460 308 460 310 445 c 0,53,54
 310 440 310 440 310 404 c 1,55,56
 296 384 296 384 244 343 c 1,57,-1
 410 415 l 1,58,59
 410 457 410 457 398 478 c 0,33,34
EndSplineSet
EndChar

StartChar: b
Encoding: 98 98 52
Width: 581
Flags: W
LayerCount: 2
Back
Fore
SplineSet
184 762 m 2,0,1
 184 763 184 763 148.5 784 c 128,-1,2
 113 805 113 805 113 806 c 1,3,4
 112 799 112 799 109 794 c 0,5,6
 100 780 100 780 77 772 c 0,7,8
 62 766 62 766 11 752 c 1,9,-1
 11 665 l 1,10,-1
 36 735 l 1,11,12
 51 735 51 735 70 714.5 c 128,-1,13
 89 694 89 694 89 685 c 2,14,-1
 89 66 l 2,15,16
 89 54 89 54 67 33 c 128,-1,17
 45 12 45 12 21 -1 c 1,18,-1
 288 -1 l 2,19,20
 364 -1 364 -1 396 8 c 0,21,22
 451 22 451 22 487 71 c 0,23,24
 547 152 547 152 547 290 c 0,25,26
 547 393 547 393 489 463 c 0,27,28
 426 541 426 541 352 541 c 0,29,30
 316 541 316 541 274.5 517 c 128,-1,31
 233 493 233 493 218 461 c 1,32,-1
 218 306 l 1,33,34
 223 314 223 314 247 375 c 0,35,36
 264 417 264 417 280 428 c 0,37,38
 306 445 306 445 329 445 c 0,39,40
 371 445 371 445 413 386 c 0,41,42
 424 371 424 371 434 334 c 0,43,44
 447 286 447 286 447 236 c 0,45,46
 447 131 447 131 417 89 c 0,47,48
 384 41 384 41 300 41 c 2,49,-1
 184 41 l 1,50,-1
 184 762 l 2,0,1
EndSplineSet
EndChar

StartChar: c
Encoding: 99 99 53
Width: 522
Flags: W
LayerCount: 2
Back
Fore
SplineSet
258 518 m 0,0,1
 317 518 317 518 384 472 c 0,2,3
 423 445 423 445 457 415 c 0,4,5
 459 412 459 412 459 407 c 0,6,7
 459 380 459 380 403 320 c 0,8,9
 362 277 362 277 317 241 c 0,10,11
 305 230 305 230 303 230 c 0,12,13
 302 230 302 230 302 231 c 0,14,15
 302 237 302 237 348.5 311 c 128,-1,16
 395 385 395 385 392 391 c 2,17,-1
 372 444 l 1,18,19
 300 475 300 475 250 475 c 0,20,21
 221 475 221 475 196 466 c 0,22,23
 151 449 151 449 135 436 c 0,24,25
 128 430 128 430 103 395 c 0,26,27
 84 369 84 369 84 286 c 0,28,29
 84 233 84 233 89 202 c 0,30,31
 96 161 96 161 99 154 c 0,32,33
 109 121 109 121 133 97 c 0,34,35
 188 42 188 42 270 42 c 0,36,37
 343 42 343 42 381 94 c 0,38,39
 408 134 408 134 434 174 c 0,40,41
 481 242 481 242 489 242 c 0,42,43
 491 242 491 242 491 240 c 0,44,45
 491 234 491 234 484 218 c 2,46,-1
 457 155 l 1,47,48
 368 -31 368 -31 227 -31 c 0,49,50
 134 -31 134 -31 72 39 c 0,51,52
 0 119 0 119 4 241 c 0,53,54
 5 288 5 288 24 342 c 0,55,56
 45 405 45 405 80 444 c 0,57,58
 146 518 146 518 258 518 c 0,0,1
EndSplineSet
EndChar

StartChar: d
Encoding: 100 100 54
Width: 563
Flags: W
LayerCount: 2
Back
Fore
SplineSet
509 393 m 1,0,-1
 468 356 l 1,1,-1
 468 2 l 1,2,-1
 321 2 l 1,3,4
 358 11 358 11 392 48 c 1,5,-1
 392 376 l 2,6,7
 392 444 392 444 352 481 c 0,8,9
 321 510 321 510 280 510 c 0,10,11
 206 510 206 510 161 441 c 0,12,13
 121 380 121 380 121 290 c 0,14,15
 121 163 121 163 149 119 c 0,16,17
 172 85 172 85 193 71 c 0,18,19
 211 60 211 60 244 55 c 0,20,21
 301 45 301 45 337 56 c 1,22,23
 323 45 323 45 285 22 c 0,24,25
 244 -3 244 -3 185 -3 c 0,26,27
 174 -3 174 -3 165 -2 c 0,28,29
 136 3 136 3 120 12 c 0,30,31
 101 24 101 24 72 60 c 0,32,33
 20 122 20 122 20 242 c 0,34,35
 20 359 20 359 86 447 c 0,36,37
 158 545 158 545 271 545 c 0,38,39
 340 545 340 545 392 493 c 1,40,-1
 392 676 l 2,41,42
 392 710 392 710 386 721 c 0,43,44
 377 738 377 738 347 738 c 0,45,46
 339 738 339 738 285 707 c 1,47,-1
 310 745 l 1,48,49
 355 763 355 763 445 801 c 1,50,-1
 498 725 l 1,51,-1
 468 678 l 1,52,-1
 468 434 l 1,53,-1
 509 393 l 1,0,-1
EndSplineSet
EndChar

StartChar: e
Encoding: 101 101 55
Width: 587
Flags: W
LayerCount: 2
Back
Fore
SplineSet
199 372 m 1,0,1
 216 440 216 440 224 454 c 0,2,3
 238 481 238 481 275 490 c 0,4,5
 282 492 282 492 289 492 c 0,6,7
 331 492 331 492 367 427 c 0,8,9
 390 386 390 386 395 341 c 1,10,-1
 258 340 l 2,11,12
 258 342 258 342 249 342 c 0,13,14
 228 342 228 342 134 332 c 0,15,16
 31 320 31 320 8 319 c 1,17,18
 -10 314 -10 314 -11 312 c 1,19,20
 -11 314 -11 314 24 303.5 c 128,-1,21
 59 293 59 293 59 269 c 0,22,23
 59 210 59 210 74 150 c 0,24,25
 91 86 91 86 119 49 c 0,26,27
 182 -33 182 -33 285 -33 c 0,28,29
 373 -33 373 -33 444 29 c 0,30,31
 488 68 488 68 517 125 c 0,32,33
 532 155 532 155 562 237 c 0,34,35
 569 254 569 254 569 258 c 0,36,37
 569 260 569 260 568 260 c 0,38,39
 566 260 566 260 523 203 c 0,40,41
 472 134 472 134 431 96 c 0,42,43
 369 39 369 39 321 39 c 0,44,45
 253 39 253 39 205 97 c 0,46,47
 149 165 149 165 143 293 c 1,48,-1
 404 293 l 1,49,-1
 479 249 l 1,50,51
 499 270 499 270 499 316 c 0,52,53
 499 356 499 356 484 399.5 c 128,-1,54
 469 443 469 443 449 462 c 0,55,56
 391 520 391 520 306 520 c 0,57,58
 199 520 199 520 129 438 c 0,59,60
 100 403 100 403 80 360 c 1,61,-1
 199 372 l 1,0,1
EndSplineSet
EndChar

StartChar: f
Encoding: 102 102 56
Width: 461
Flags: W
LayerCount: 2
Back
Fore
SplineSet
160 430 m 1,0,-1
 13 430 l 1,1,-1
 160 469 l 1,2,3
 160 651 160 651 202 710 c 0,4,5
 249 775 249 775 335 775 c 0,6,7
 365 775 365 775 411 737 c 0,8,9
 414 735 414 735 417 735 c 0,10,11
 423 735 423 735 428.5 746.5 c 128,-1,12
 434 758 434 758 435 758 c 0,13,14
 441 758 441 758 440 674 c 0,15,16
 439 572 439 572 439 570 c 0,17,18
 439 561 439 561 437 560 c 0,19,20
 434 560 434 560 414 638.5 c 128,-1,21
 394 717 394 717 384 724 c 0,22,23
 346 751 346 751 323 751 c 0,24,25
 288 751 288 751 265 721 c 128,-1,26
 242 691 242 691 242 641 c 2,27,-1
 242 469 l 1,28,-1
 389 469 l 1,29,-1
 243 430 l 1,30,-1
 243 124 l 2,31,32
 243 59 243 59 261 41 c 0,33,34
 266 36 266 36 345 23 c 128,-1,35
 424 10 424 10 424 6 c 0,36,37
 424 3 424 3 412 2 c 2,38,-1
 160 2 l 1,39,-1
 160 430 l 1,0,-1
EndSplineSet
EndChar

StartChar: g
Encoding: 103 103 57
Width: 578
Flags: W
LayerCount: 2
Back
Fore
SplineSet
274 -208 m 0,0,1
 102 -208 102 -208 102 -109 c 0,2,3
 102 -74 102 -74 124 -41 c 0,4,5
 142 -15 142 -15 288 132 c 0,6,7
 312 155 312 155 312 159 c 0,8,9
 311 160 311 160 310 160 c 0,10,11
 307 160 307 160 290 149 c 2,12,-1
 186 76 l 1,13,14
 141 77 141 77 141 101 c 0,15,16
 141 119 141 119 165.5 143 c 128,-1,17
 190 167 190 167 216 178 c 1,18,19
 230 174 230 174 248 174 c 0,20,21
 283 174 283 174 323 191 c 0,22,23
 360 207 360 207 384 230 c 0,24,25
 438 282 438 282 438 350 c 0,26,27
 438 370 438 370 428 404 c 1,28,-1
 374 377 l 1,29,30
 378 362 378 362 378 347 c 0,31,32
 378 292 378 292 329 248 c 0,33,34
 284 208 284 208 255 216 c 0,35,36
 227 224 227 224 187 250 c 0,37,38
 144 279 144 279 144 330 c 0,39,40
 144 356 144 356 159 384 c 0,41,42
 203 464 203 464 316 464 c 0,43,44
 331 464 331 464 386 445 c 0,45,46
 421 433 421 433 456 421 c 1,47,-1
 508 314 l 1,48,-1
 523 450 l 1,49,-1
 479 506 l 2,50,51
 480 505 480 505 480 492 c 0,52,53
 481 474 481 474 469 474 c 0,54,55
 461 474 461 474 418 492 c 0,56,57
 348 522 348 522 337 526 c 0,58,59
 296 540 296 540 256 540 c 0,60,61
 240 540 240 540 223 538 c 0,62,63
 146 529 146 529 97 480 c 0,64,65
 44 428 44 428 46 352 c 0,66,67
 48 230 48 230 166 193 c 1,68,69
 108 162 108 162 65 115 c 0,70,71
 37 86 37 86 47 60 c 0,72,73
 59 28 59 28 130 0 c 1,74,75
 93 -35 93 -35 56 -70 c 0,76,77
 17 -111 17 -111 15 -160 c 0,78,79
 13 -202 13 -202 74 -239 c 0,80,81
 143 -281 143 -281 244 -281 c 0,82,83
 329 -281 329 -281 393 -251 c 1,84,85
 422 -207 422 -207 438 -135 c 1,86,87
 418 -159 418 -159 394 -185 c 1,88,89
 295 -208 295 -208 274 -208 c 0,0,1
443 48 m 1,90,91
 490 33 490 33 510 15 c 0,92,93
 533 -8 533 -8 533 -50 c 0,94,95
 533 -87 533 -87 492.5 -159.5 c 128,-1,96
 452 -232 452 -232 409 -277 c 1,97,-1
 403 -276 l 1,98,99
 432 -243 432 -243 457 -165 c 0,100,101
 480 -96 480 -96 480 -65 c 0,102,103
 480 -40 480 -40 428 -29 c 0,104,105
 382 -20 382 -20 308 -14 c 0,106,107
 216 -6 216 -6 188 -2 c 1,108,-1
 256 74 l 1,109,110
 332 67 332 67 443 48 c 1,90,91
EndSplineSet
EndChar

StartChar: h
Encoding: 104 104 58
Width: 567
Flags: W
LayerCount: 2
Back
Fore
SplineSet
120 299 m 1,0,-1
 120 59 l 2,1,2
 120 48 120 48 73.5 27.5 c 128,-1,3
 27 7 27 7 1 4 c 1,4,-1
 6 0 l 1,5,-1
 203 0 l 1,6,-1
 203 356 l 1,7,8
 227 375 227 375 250 393 c 0,9,10
 277 413 277 413 304 415 c 0,11,12
 368 419 368 419 368 328 c 2,13,-1
 368 0 l 1,14,-1
 562 0 l 1,15,-1
 565 4 l 1,16,17
 539 11 539 11 498 30 c 128,-1,18
 457 49 457 49 451 58 c 1,19,-1
 451 326 l 2,20,21
 451 407 451 407 427 455 c 0,22,23
 400 508 400 508 352 508 c 0,24,25
 313 508 313 508 264 474 c 0,26,27
 252 466 252 466 152 361 c 0,28,29
 59 263 59 263 36 237 c 1,30,-1
 36 233 l 1,31,32
 60 252 60 252 120 299 c 1,0,-1
189 786 m 1,33,-1
 16 697 l 1,34,35
 41 696 41 696 66 694 c 0,36,37
 97 691 97 691 108.5 680 c 128,-1,38
 120 669 120 669 120 622 c 2,39,-1
 120 368 l 1,40,-1
 201 445 l 1,41,-1
 201 725 l 1,42,-1
 243 701 l 1,43,-1
 189 786 l 1,33,-1
EndSplineSet
EndChar

StartChar: i
Encoding: 105 105 59
Width: 382
Flags: W
LayerCount: 2
Back
Fore
SplineSet
73 441 m 1,0,1
 124 462 124 462 239 504 c 1,2,-1
 295 461 l 1,3,4
 263 424 263 424 263 421 c 2,5,-1
 263 127 l 2,6,7
 263 61 263 61 281 41 c 0,8,9
 289 32 289 32 320.5 18.5 c 128,-1,10
 352 5 352 5 378 3 c 1,11,-1
 373 0 l 1,12,-1
 55 0 l 1,13,-1
 52 3 l 1,14,15
 82 6 82 6 120.5 19.5 c 128,-1,16
 159 33 159 33 167 41 c 0,17,18
 182 57 182 57 182 123 c 2,19,-1
 182 367 l 2,20,21
 182 404 182 404 178 417 c 0,22,23
 170 443 170 443 141 443 c 1,24,25
 141 443 141 443 114 438.5 c 128,-1,26
 87 434 87 434 77 434 c 1,27,-1
 73 441 l 1,0,1
256 527 m 1,28,29
 212 550 212 550 216 583 c 1,30,31
 190 576 190 576 173 529 c 1,32,33
 169 544 169 544 169 556 c 0,34,35
 169 582 169 582 185 597 c 1,36,37
 170 602 170 602 160 602 c 0,38,39
 144 602 144 602 117 589 c 1,40,41
 135 622 135 622 173 629 c 1,42,43
 160 654 160 654 150 661.5 c 128,-1,44
 140 669 140 669 119 671 c 1,45,46
 136 680 136 680 147 680 c 0,47,48
 163 680 163 680 187 659 c 1,49,50
 193 679 193 679 193 691 c 0,51,52
 193 710 193 710 179 728 c 1,53,54
 220 707 220 707 218 672 c 1,55,56
 250 692 250 692 261 726 c 1,57,58
 266 713 266 713 266 699 c 0,59,60
 266 675 266 675 249 658 c 1,61,62
 260 651 260 651 274 651 c 0,63,64
 295 651 295 651 318 666 c 1,65,66
 297 626 297 626 261 626 c 1,67,68
 271 600 271 600 315 584 c 1,69,70
 297 580 297 580 285 580 c 0,71,72
 260 580 260 580 248 596 c 1,73,74
 243 587 243 587 243 575 c 0,75,76
 243 561 243 561 256 527 c 1,28,29
EndSplineSet
EndChar

StartChar: j
Encoding: 106 106 60
Width: 330
Flags: W
LayerCount: 2
Back
Fore
SplineSet
11 -27 m 1,0,1
 28 -71 28 -71 65 -145 c 1,2,3
 96 -187 96 -187 122 -187 c 0,4,5
 140 -187 140 -187 148.5 -158 c 128,-1,6
 157 -129 157 -129 158 -81 c 1,7,8
 158 -82 158 -82 158 363 c 0,9,10
 158 400 158 400 147 422 c 0,11,12
 139 440 139 440 93 440 c 0,13,14
 55 440 55 440 26 432 c 1,15,-1
 21 434 l 1,16,-1
 293 532 l 2,17,18
 292 533 292 533 264 506 c 128,-1,19
 236 479 236 479 236 462 c 0,20,21
 236 446 236 446 260 439 c 1,22,23
 245 398 245 398 232 355 c 1,24,-1
 232 -27 l 2,25,26
 232 -87 232 -87 221 -150 c 0,27,28
 207 -226 207 -226 185 -243 c 0,29,30
 151 -271 151 -271 122 -271 c 0,31,32
 83 -271 83 -271 65 -213 c 1,33,34
 60 -225 60 -225 54 -260 c 128,-1,35
 48 -295 48 -295 34 -319 c 1,36,37
 35 -308 35 -308 23 -170.5 c 128,-1,38
 11 -33 11 -33 11 -27 c 1,0,1
222 526 m 1,39,40
 179 549 179 549 183 582 c 1,41,42
 157 575 157 575 140 528 c 1,43,44
 136 543 136 543 136 555 c 0,45,46
 136 581 136 581 152 596 c 1,47,48
 137 601 137 601 126 601 c 0,49,50
 111 601 111 601 84 588 c 1,51,52
 102 621 102 621 140 628 c 1,53,54
 127 653 127 653 117 660.5 c 128,-1,55
 107 668 107 668 86 670 c 1,56,57
 103 679 103 679 114 679 c 0,58,59
 130 679 130 679 154 658 c 1,60,61
 159 678 159 678 159 690 c 0,62,63
 159 709 159 709 145 727 c 1,64,65
 186 706 186 706 185 670 c 1,66,67
 217 690 217 690 228 725 c 1,68,69
 233 712 233 712 233 698 c 0,70,71
 233 673 233 673 216 657 c 1,72,73
 227 650 227 650 241 650 c 0,74,75
 261 650 261 650 284 665 c 1,76,77
 264 625 264 625 228 625 c 1,78,79
 238 599 238 599 282 583 c 1,80,81
 264 579 264 579 252 579 c 0,82,83
 227 579 227 579 214 594 c 1,84,85
 210 585 210 585 210 574 c 0,86,87
 210 560 210 560 222 526 c 1,39,40
EndSplineSet
EndChar

StartChar: k
Encoding: 107 107 61
Width: 692
Flags: W
LayerCount: 2
Back
Fore
SplineSet
711 0 m 2,0,1
 713 1 713 1 713 2 c 0,2,3
 713 5 713 5 655 22 c 0,4,5
 592 40 592 40 578 52 c 0,6,7
 526 96 526 96 335 271 c 1,8,-1
 171 194 l 1,9,-1
 171 0 l 1,10,-1
 407 0 l 1,11,12
 411 6 411 6 359 15 c 0,13,14
 299 26 299 26 296 27 c 0,15,16
 260 43 260 43 260 82 c 2,17,-1
 261 214 l 1,18,-1
 510 0 l 1,19,-1
 711 0 l 2,0,1
470 460 m 1,20,21
 507 482 507 482 552 482 c 0,22,23
 600 482 600 482 635 452 c 1,24,-1
 581 513 l 1,25,-1
 409 512 l 1,26,-1
 398 499 l 1,27,28
 412 497 412 497 426 492.5 c 128,-1,29
 440 488 440 488 440 472 c 0,30,31
 440 452 440 452 426 442 c 2,32,-1
 103 194 l 2,33,34
 98 189 98 189 98 185 c 0,35,36
 98 182 98 182 101 182 c 0,37,38
 106 182 106 182 120 190 c 2,39,-1
 396 334 l 1,40,41
 418 357 418 357 470 408 c 1,42,43
 469 427 469 427 470 460 c 1,20,21
171 645 m 2,44,45
 171 678 171 678 162 692 c 0,46,47
 150 708 150 708 117 708 c 0,48,49
 115 708 115 708 48 696 c 0,50,51
 -14 685 -14 685 -14 689 c 0,52,53
 -14 690 -14 690 -11 692 c 2,54,-1
 303 793 l 2,55,56
 307 791 307 791 284 757.5 c 128,-1,57
 261 724 261 724 261 722 c 2,58,-1
 261 346 l 1,59,-1
 171 283 l 1,60,-1
 171 645 l 2,44,45
EndSplineSet
EndChar

StartChar: l
Encoding: 108 108 62
Width: 302
Flags: W
LayerCount: 2
Back
Fore
SplineSet
104 609 m 2,0,1
 104 648 104 648 99 661 c 0,2,3
 90 684 90 684 60 684 c 0,4,5
 48 684 48 684 26.5 680 c 128,-1,6
 5 676 5 676 -2 675 c 1,7,-1
 -5 683 l 1,8,9
 45 704 45 704 161 746 c 1,10,-1
 216 702 l 1,11,-1
 184 663 l 1,12,-1
 184 140 l 2,13,14
 184 86 184 86 184 83 c 0,15,16
 188 44 188 44 206 34 c 0,17,18
 215 28 215 28 265 16 c 0,19,20
 297 8 297 8 297 1 c 0,21,22
 297 0 297 0 296 0 c 2,23,-1
 133 0 l 1,24,-1
 75 46 l 1,25,-1
 104 84 l 1,26,-1
 104 609 l 2,0,1
EndSplineSet
EndChar

StartChar: m
Encoding: 109 109 63
Width: 987
Flags: W
LayerCount: 2
Back
Fore
SplineSet
715 460 m 0,0,1
 777 460 777 460 799 413 c 0,2,3
 812 385 812 385 812 331 c 2,4,-1
 812 98 l 2,5,6
 812 51 812 51 796 36 c 0,7,8
 792 31 792 31 736 18 c 0,9,10
 685 5 685 5 691 0 c 1,11,-1
 904 0 l 1,12,-1
 904 311 l 2,13,14
 904 376 904 376 902 392 c 0,15,16
 899 429 899 429 887 446 c 0,17,18
 831 523 831 523 738 523 c 0,19,20
 676 523 676 523 636 496 c 0,21,22
 590 464 590 464 590 426 c 0,23,24
 590 386 590 386 627 329 c 1,25,26
 621 389 621 389 638 417 c 0,27,28
 666 460 666 460 715 460 c 0,0,1
454 521 m 0,29,30
 384 525 384 525 331 488.5 c 128,-1,31
 278 452 278 452 278 397 c 0,32,33
 278 363 278 363 301 328 c 1,34,35
 299 381 299 381 334 422 c 0,36,37
 366 460 366 460 403 460 c 0,38,39
 466 460 466 460 485 404 c 0,40,41
 495 372 495 372 495 325 c 2,42,-1
 495 99 l 2,43,44
 495 66 495 66 492 56 c 0,45,46
 486 49 486 49 481.5 42 c 128,-1,47
 477 35 477 35 414 19 c 0,48,49
 357 5 357 5 361 0 c 1,50,-1
 588 0 l 1,51,-1
 588 378 l 1,52,53
 571 516 571 516 454 521 c 0,29,30
267 521 m 1,54,55
 208 500 208 500 55 447 c 0,56,57
 52 443 52 443 69 443 c 0,58,59
 80 443 80 443 103.5 444.5 c 128,-1,60
 127 446 127 446 129 446 c 0,61,62
 160 446 160 446 170 426 c 0,63,64
 177 412 177 412 177 377 c 2,65,-1
 177 96 l 2,66,67
 177 45 177 45 155 28 c 0,68,69
 152 26 152 26 102 15 c 0,70,71
 58 6 58 6 61 0 c 1,72,-1
 267 0 l 1,73,-1
 267 521 l 1,54,55
EndSplineSet
EndChar

StartChar: n
Encoding: 110 110 64
Width: 680
Flags: W
LayerCount: 2
Back
Fore
SplineSet
463 521 m 0,0,1
 443 525 443 525 423 525 c 0,2,3
 361 525 361 525 323 491 c 128,-1,4
 285 457 285 457 285 407 c 0,5,6
 285 367 285 367 310 327 c 1,7,8
 308 381 308 381 343 421 c 0,9,10
 375 460 375 460 412 460 c 0,11,12
 475 460 475 460 494 403 c 0,13,14
 505 371 505 371 505 325 c 2,15,-1
 505 103 l 2,16,17
 505 70 505 70 500.5 61.5 c 128,-1,18
 496 53 496 53 491 46 c 128,-1,19
 486 39 486 39 423 21 c 0,20,21
 366 5 366 5 370 0 c 1,22,-1
 597 0 l 1,23,-1
 597 378 l 1,24,25
 582 500 582 500 463 521 c 0,0,1
267 521 m 1,26,27
 208 500 208 500 55 447 c 0,28,29
 52 443 52 443 69 443 c 0,30,31
 80 443 80 443 103.5 444.5 c 128,-1,32
 127 446 127 446 129 446 c 0,33,34
 160 446 160 446 170 426 c 0,35,36
 177 412 177 412 177 377 c 2,37,-1
 177 96 l 2,38,39
 177 45 177 45 155 28 c 0,40,41
 152 26 152 26 102 15 c 0,42,43
 58 6 58 6 61 0 c 1,44,-1
 267 0 l 1,45,-1
 267 521 l 1,26,27
EndSplineSet
EndChar

StartChar: o
Encoding: 111 111 65
Width: 522
Flags: W
LayerCount: 2
Back
Fore
SplineSet
348 421 m 0,0,1
 377 392 377 392 385 376 c 0,2,3
 395 356 395 356 403 308 c 0,4,5
 408 279 408 279 408 249 c 0,6,7
 408 181 408 181 383 111 c 0,8,9
 352 26 352 26 297 -15 c 0,10,11
 279 -28 279 -28 228 -42 c 0,12,13
 184 -53 184 -53 184 -56 c 0,14,15
 184 -57 184 -57 187 -58 c 0,16,17
 248 -77 248 -77 286 -77 c 0,18,19
 327 -77 327 -77 364 -58 c 0,20,21
 460 -10 460 -10 499 99 c 0,22,23
 520 155 520 155 520 208 c 0,24,25
 520 264 520 264 497 316 c 0,26,27
 452 421 452 421 348 459 c 0,28,29
 333 465 333 465 268 457 c 0,30,31
 267 457 267 457 266 456 c 1,32,33
 266 457 266 457 296 448 c 0,34,35
 330 438 330 438 348 421 c 0,0,1
176 28 m 0,36,37
 147 57 147 57 139 73 c 0,38,39
 128 93 128 93 120 141 c 0,40,41
 115 170 115 170 115 200 c 0,42,43
 115 268 115 268 140 337 c 0,44,45
 171 422 171 422 227 464 c 0,46,47
 245 477 245 477 295 490 c 0,48,49
 340 502 340 502 340 505 c 0,50,51
 339 506 339 506 337 507 c 0,52,53
 275 525 275 525 237 525 c 0,54,55
 196 525 196 525 160 507 c 0,56,57
 64 458 64 458 24 350 c 0,58,59
 4 294 4 294 4 241 c 0,60,61
 4 185 4 185 27 132 c 0,62,63
 72 27 72 27 176 -10 c 0,64,65
 191 -16 191 -16 255 -9 c 0,66,67
 257 -8 257 -8 257 -7 c 1,68,69
 257 -8 257 -8 227 1 c 0,70,71
 194 10 194 10 176 28 c 0,36,37
EndSplineSet
EndChar

StartChar: p
Encoding: 112 112 66
Width: 605
Flags: W
LayerCount: 2
Back
Fore
SplineSet
171 368 m 1,0,1
 167 364 167 364 156 344 c 0,2,3
 130 301 130 301 99 238 c 0,4,5
 87 212 87 212 87 206 c 0,6,7
 87 204 87 204 88 204 c 0,8,9
 93 204 93 204 170 304 c 0,10,11
 251 409 251 409 277 422 c 0,12,13
 316 442 316 442 333 442 c 0,14,15
 386 442 386 442 420 398 c 0,16,17
 449 361 449 361 455 305 c 0,18,19
 458 279 458 279 458 244 c 0,20,21
 458 200 458 200 447 153 c 0,22,23
 438 114 438 114 428 98 c 0,24,25
 406 63 406 63 399 55 c 0,26,27
 384 41 384 41 359 41 c 0,28,29
 273 41 273 41 246 114 c 1,30,-1
 246 365 l 1,31,-1
 171 281 l 1,32,-1
 171 -119 l 1,33,-1
 246 -273 l 1,34,-1
 246 55 l 1,35,36
 291 7 291 7 359 7 c 0,37,38
 413 7 413 7 436 15 c 0,39,40
 470 28 470 28 495 70 c 0,41,42
 544 154 544 154 544 283 c 0,43,44
 544 373 544 373 486 446 c 0,45,46
 437 508 437 508 357 508 c 0,47,48
 302 508 302 508 246 453 c 1,49,50
 246 453 246 453 246 521 c 1,51,-1
 212 505 l 2,52,53
 207 502 207 502 146 505 c 1,54,55
 127 493 127 493 110.5 479 c 128,-1,56
 94 465 94 465 94 465 c 2,57,58
 96 462 96 462 128 458.5 c 128,-1,59
 160 455 160 455 171 429 c 0,60,61
 171 424 171 424 171 388 c 0,62,63
 171 376 171 376 171 368 c 1,0,1
156 -36 m 1,64,65
 147 -60 147 -60 139 -83 c 128,-1,66
 131 -106 131 -106 131 -124 c 0,67,68
 131 -135 131 -135 133 -146 c 0,69,70
 136 -167 136 -167 145.5 -186 c 128,-1,71
 155 -205 155 -205 178 -223 c 0,72,73
 193 -236 193 -236 208 -248 c 1,74,75
 200 -251 200 -251 190 -251 c 0,76,77
 154 -251 154 -251 107 -217 c 1,78,79
 78 -184 78 -184 78 -147 c 0,80,81
 78 -131 78 -131 83 -113 c 0,82,83
 99 -55 99 -55 156 -36 c 1,64,65
EndSplineSet
EndChar

StartChar: q
Encoding: 113 113 67
Width: 600
Flags: W
LayerCount: 2
Back
Fore
SplineSet
452 368 m 0,0,1
 455 364 455 364 467 344 c 0,2,3
 492 301 492 301 523 238 c 0,4,5
 535 212 535 212 535 206 c 0,6,7
 535 204 535 204 534 204 c 0,8,9
 530 204 530 204 452 304 c 0,10,11
 371 409 371 409 345 422 c 0,12,13
 307 442 307 442 289 442 c 0,14,15
 236 442 236 442 202 398 c 0,16,17
 173 361 173 361 167 305 c 0,18,19
 164 279 164 279 164 244 c 0,20,21
 164 200 164 200 175 153 c 0,22,23
 185 114 185 114 195 98 c 0,24,25
 216 63 216 63 224 55 c 0,26,27
 238 41 238 41 264 41 c 0,28,29
 350 41 350 41 377 114 c 1,30,-1
 377 365 l 1,31,-1
 452 281 l 1,32,-1
 452 -119 l 1,33,34
 435 -166 435 -166 417 -214 c 0,35,36
 389 -289 389 -289 381 -289 c 0,37,38
 377 -289 377 -289 377 -273 c 2,39,-1
 377 55 l 1,40,41
 332 7 332 7 263 7 c 0,42,43
 209 7 209 7 186 15 c 0,44,45
 152 28 152 28 128 70 c 0,46,47
 78 154 78 154 78 283 c 0,48,49
 78 373 78 373 136 446 c 0,50,51
 185 508 185 508 266 508 c 0,52,53
 321 508 321 508 377 453 c 1,54,55
 377 453 377 453 377 521 c 1,56,-1
 410 505 l 2,57,58
 415 502 415 502 477 505 c 1,59,60
 495 493 495 493 514 478 c 0,61,62
 529 465 529 465 529 465 c 1,63,64
 526 462 526 462 494.5 458.5 c 128,-1,65
 463 455 463 455 452 429 c 0,66,67
 452 424 452 424 452 388 c 0,68,69
 451 376 451 376 452 368 c 0,0,1
466 -36 m 1,70,71
 475 -60 475 -60 483.5 -83 c 128,-1,72
 492 -106 492 -106 492 -124 c 0,73,74
 492 -135 492 -135 490 -146 c 0,75,76
 486 -167 486 -167 477 -186 c 128,-1,77
 468 -205 468 -205 445 -223 c 0,78,79
 430 -236 430 -236 414 -248 c 1,80,81
 423 -251 423 -251 433 -251 c 0,82,83
 469 -251 469 -251 516 -217 c 1,84,85
 544 -184 544 -184 544 -147 c 0,86,87
 544 -131 544 -131 539 -113 c 0,88,89
 524 -55 524 -55 466 -36 c 1,70,71
EndSplineSet
EndChar

StartChar: r
Encoding: 114 114 68
Width: 439
Flags: W
LayerCount: 2
Back
Fore
SplineSet
102 341 m 2,0,1
 102 388 102 388 96 407 c 0,2,3
 86 446 86 446 52 447 c 0,4,5
 37 448 37 448 16 440 c 0,6,7
 1 435 1 435 1 438 c 0,8,9
 1 440 1 440 4 446 c 2,10,-1
 25 478 l 1,11,-1
 83 491 l 1,12,-1
 125 491 l 1,13,14
 138 500 138 500 171 525 c 0,15,16
 176 525 176 525 176 511 c 2,17,-1
 176 417 l 1,18,19
 213 508 213 508 295 508 c 0,20,21
 343 508 343 508 361 474 c 0,22,23
 383 430 383 430 383 417 c 2,24,-1
 383 290 l 2,25,26
 382 287 382 287 381 287 c 0,27,28
 376 287 376 287 357 343 c 0,29,30
 336 405 336 405 334 408 c 0,31,32
 322 427 322 427 316 431.5 c 128,-1,33
 310 436 310 436 291 439 c 1,34,35
 266 435 266 435 254 427 c 0,36,37
 226 407 226 407 208 372 c 0,38,39
 176 310 176 310 176 281 c 2,40,-1
 176 117 l 2,41,42
 176 62 176 62 196 45 c 0,43,44
 202 40 202 40 269 27 c 0,45,46
 331 15 331 15 331 7 c 0,47,48
 331 4 331 4 325 2 c 2,49,-1
 102 2 l 1,50,-1
 102 341 l 2,0,1
EndSplineSet
EndChar

StartChar: s
Encoding: 115 115 69
Width: 419
Flags: W
LayerCount: 2
Back
Fore
SplineSet
55 300 m 1,0,1
 18 344 18 344 18 384 c 0,2,3
 18 450 18 450 57 485 c 0,4,5
 103 526 103 526 172 526 c 0,6,7
 197 526 197 526 239 515 c 0,8,9
 269 508 269 508 286 479 c 1,10,11
 289 505 289 505 308 517 c 1,12,-1
 328 517 l 1,13,-1
 314 491 l 1,14,-1
 314 288 l 1,15,16
 310 275 310 275 307 275 c 256,17,18
 304 275 304 275 291 332 c 0,19,20
 276 401 276 401 255 438 c 0,21,22
 222 495 222 495 168 496 c 0,23,24
 133 497 133 497 108 474 c 128,-1,25
 83 451 83 451 83 417 c 0,26,27
 83 385 83 385 142 295 c 2,28,-1
 224 172 l 1,29,30
 150 224 150 224 55 300 c 1,0,1
234 271 m 2,31,32
 268 254 268 254 300 214.5 c 128,-1,33
 332 175 332 175 347 130 c 0,34,35
 352 115 352 115 352 99 c 0,36,37
 352 52 352 52 309 16 c 0,38,39
 258 -27 258 -27 177 -27 c 0,40,41
 141 -27 141 -27 99 -16 c 0,42,43
 38 -2 38 -2 13 80 c 1,44,45
 12 165 12 165 13 225 c 0,46,47
 15 239 15 239 17 239 c 0,48,49
 22 239 22 239 36 158 c 0,50,51
 51 71 51 71 60 56 c 0,52,53
 93 7 93 7 183 7 c 0,54,55
 222 7 222 7 249.5 27 c 128,-1,56
 277 47 277 47 277 85 c 0,57,58
 277 127 277 127 238 189 c 2,59,-1
 164 307 l 1,60,-1
 234 271 l 2,31,32
EndSplineSet
EndChar

StartChar: t
Encoding: 116 116 70
Width: 262
Flags: W
LayerCount: 2
Back
Fore
SplineSet
82 461 m 1,0,-1
 0 461 l 1,1,-1
 42 504 l 1,2,-1
 105 504 l 1,3,-1
 148 652 l 1,4,5
 148 633 148 633 154 622 c 0,6,7
 158 616 158 616 162 609 c 1,8,-1
 162 504 l 1,9,-1
 281 504 l 1,10,-1
 242 461 l 1,11,-1
 162 461 l 1,12,-1
 162 -155 l 1,13,-1
 44 57 l 1,14,-1
 82 57 l 1,15,-1
 82 461 l 1,0,-1
EndSplineSet
EndChar

StartChar: u
Encoding: 117 117 71
Width: 575
Flags: W
LayerCount: 2
Back
Fore
SplineSet
516 214 m 1,0,1
 505 210 505 210 451 162 c 0,2,3
 388 106 388 106 352 81 c 0,4,5
 293 39 293 39 258 39 c 0,6,7
 170 39 170 39 170 146 c 2,8,-1
 170 513 l 1,9,-1
 1 513 l 2,10,11
 -13 510 -13 510 -13 507 c 0,12,13
 -13 502 -13 502 29 494 c 0,14,15
 75 486 75 486 77 484 c 0,16,17
 96 470 96 470 96 423 c 2,18,-1
 96 124 l 2,19,20
 96 48 96 48 141 6 c 0,21,22
 167 -18 167 -18 170 -20 c 0,23,24
 185 -30 185 -30 210 -29 c 0,25,26
 261 -29 261 -29 298 -8.5 c 128,-1,27
 335 12 335 12 389 66 c 1,28,29
 387 -19 387 -19 389 -19 c 0,30,31
 402 -14 402 -14 411 -14 c 0,32,33
 434 -14 434 -14 435 -62 c 1,34,35
 478 -36 478 -36 478 30 c 2,36,-1
 478 153 l 1,37,38
 545 220 545 220 545 233 c 0,39,40
 545 234 545 234 544 234 c 0,41,42
 538 234 538 234 516 214 c 1,0,1
378 155 m 1,43,-1
 378 383 l 2,44,45
 378 446 378 446 318 446 c 2,46,-1
 267 446 l 2,47,48
 253 446 253 446 253 449 c 0,49,50
 253 457 253 457 360 484 c 0,51,52
 419 499 419 499 478 513 c 1,53,-1
 478 216 l 1,54,55
 365 113 365 113 351 113 c 0,56,57
 350 113 350 113 350 115 c 0,58,59
 350 121 350 121 378 155 c 1,43,-1
EndSplineSet
EndChar

StartChar: v
Encoding: 118 118 72
Width: 552
Flags: W
LayerCount: 2
Back
Fore
SplineSet
242 508 m 2,0,1
 262 508 262 508 262 506 c 0,2,3
 262 502 262 502 210 492 c 0,4,5
 155 481 155 481 154 481 c 0,6,7
 124 465 124 465 124 449 c 0,8,9
 124 443 124 443 139 409 c 2,10,-1
 298 42 l 1,11,12
 300 48 300 48 320 86 c 1,13,14
 326 85 326 85 326 74 c 0,15,16
 326 36 326 36 281 -38 c 1,17,18
 257 -22 257 -22 219 8 c 1,19,-1
 4 508 l 1,20,-1
 242 508 l 2,0,1
503 470 m 2,21,22
 524 471 524 471 524 468 c 0,23,24
 524 463 524 463 487 449 c 128,-1,25
 450 435 450 435 449 434 c 0,26,27
 442 429 442 429 441 427 c 0,28,29
 435 411 435 411 429 395 c 2,30,-1
 303 93 l 1,31,32
 288 123 288 123 274 152 c 0,33,34
 252 197 252 197 252 204 c 0,35,36
 252 206 252 206 253 206 c 0,37,38
 257 206 257 206 279 176 c 1,39,-1
 397 470 l 1,40,-1
 503 470 l 2,21,22
EndSplineSet
EndChar

StartChar: w
Encoding: 119 119 73
Width: 842
Flags: W
LayerCount: 2
Back
Fore
SplineSet
382 441 m 0,0,1
 371 467 371 467 340 481 c 0,2,3
 322 488 322 488 288 494 c 0,4,5
 263 498 263 498 263 502 c 0,6,7
 263 505 263 505 268 509 c 1,8,-1
 440 509 l 1,9,-1
 468 447 l 1,10,-1
 415 353 l 1,11,12
 415 362 415 362 382 441 c 0,0,1
242 278 m 2,13,14
 196 387 196 387 145 509 c 1,15,-1
 -10 509 l 2,16,17
 -20 506 -20 506 -20 504 c 0,18,19
 -20 501 -20 501 20 494.5 c 128,-1,20
 60 488 60 488 63 480 c 0,21,22
 115 349 115 349 242 55 c 1,23,-1
 292 150 l 1,24,-1
 242 278 l 2,13,14
498 377 m 1,25,26
 518 428 518 428 537 479 c 0,27,28
 560 540 560 540 560 549 c 0,29,30
 560 551 560 551 559 551 c 0,31,32
 557 551 557 551 550 541 c 2,33,-1
 253 24 l 1,34,35
 263 1 263 1 285 -38 c 1,36,37
 290 -38 290 -38 293 -31 c 2,38,-1
 447 278 l 1,39,-1
 538 63 l 1,40,-1
 585 159 l 1,41,-1
 498 377 l 1,25,26
713 369 m 2,42,43
 741 426 741 426 741 454 c 0,44,45
 740 479 740 479 677 493 c 128,-1,46
 614 507 614 507 614 506 c 1,47,48
 615 507 615 507 623 509 c 2,49,-1
 802 509 l 1,50,-1
 591 -27 l 2,51,52
 587 -38 587 -38 582 -38 c 1,53,54
 570 -17 570 -17 548 29 c 1,55,-1
 713 369 l 2,42,43
EndSplineSet
EndChar

StartChar: x
Encoding: 120 120 74
Width: 580
Flags: W
LayerCount: 2
Back
Fore
SplineSet
253 2 m 1,0,1
 250 12 250 12 202 19 c 128,-1,2
 154 26 154 26 151.5 30.5 c 128,-1,3
 149 35 149 35 149 42 c 0,4,5
 149 57 149 57 170 89 c 2,6,-1
 248 209 l 2,7,8
 250 206 250 206 265 169 c 0,9,10
 277 139 277 139 280 139 c 256,11,12
 283 139 283 139 282 153 c 2,13,-1
 260 265 l 1,14,-1
 231 280 l 1,15,-1
 61 2 l 1,16,-1
 253 2 l 1,0,1
285 202 m 1,17,18
 297 183 297 183 323 143 c 0,19,20
 373 69 373 69 412 2 c 1,21,-1
 578 2 l 2,22,23
 587 5 587 5 587 7 c 0,24,25
 587 8 587 8 537 24 c 0,26,27
 481 42 481 42 460 73 c 2,28,-1
 319 284 l 1,29,-1
 280 308 l 1,30,-1
 267 384 l 1,31,32
 227 439 227 439 164 530 c 1,33,-1
 1 529 l 2,34,35
 -10 527 -10 527 -10 523 c 0,36,37
 -10 517 -10 517 38 507 c 0,38,39
 93 495 93 495 95.5 494 c 128,-1,40
 98 493 98 493 133 442 c 2,41,-1
 230 302 l 1,42,-1
 270 280 l 1,43,-1
 285 202 l 1,17,18
279 530 m 2,44,45
 275 528 275 528 275 527 c 256,46,47
 275 526 275 526 323.5 514.5 c 128,-1,48
 372 503 372 503 373 487 c 0,49,50
 373 471 373 471 304 374 c 1,51,52
 279 454 279 454 272 454 c 0,53,54
 271 453 271 453 271 450 c 0,55,56
 271 444 271 444 274 428 c 2,57,-1
 294 320 l 1,58,-1
 316 303 l 1,59,-1
 466 530 l 1,60,-1
 279 530 l 2,44,45
EndSplineSet
EndChar

StartChar: y
Encoding: 121 121 75
Width: 579
Flags: W
LayerCount: 2
Back
Fore
SplineSet
434 428 m 0,0,1
 445 459 445 459 445 477 c 256,2,3
 445 495 445 495 432 495 c 1,4,5
 433 495 433 495 392 482 c 1,6,-1
 426 520 l 1,7,-1
 617 520 l 2,8,9
 620 520 620 520 620 519 c 1,10,11
 620 520 620 520 565 501.5 c 128,-1,12
 510 483 510 483 502 462 c 2,13,-1
 316 -32 l 2,14,15
 273 -146 273 -146 229 -200 c 0,16,17
 222 -208 222 -208 222 -217 c 0,18,19
 222 -229 222 -229 234 -241 c 0,20,21
 242 -248 242 -248 249 -255 c 1,22,23
 244 -256 244 -256 238 -257 c 0,24,25
 228 -256 228 -256 176 -240 c 0,26,27
 166 -237 166 -237 163 -237 c 0,28,29
 156 -237 156 -237 137 -277 c 1,30,31
 88 -193 88 -193 24 -85 c 1,32,33
 31 -80 31 -80 65 -117 c 0,34,35
 106 -163 106 -163 107 -165 c 0,36,37
 139 -187 139 -187 161 -187 c 0,38,39
 193 -187 193 -187 242 -94 c 0,40,41
 256 -66 256 -66 289 29 c 0,42,43
 307 81 307 81 325 133 c 0,44,45
 364 226 364 226 434 428 c 0,0,1
193 424 m 2,46,47
 175 461 175 461 175 465 c 0,48,49
 175 477 175 477 242.5 497 c 128,-1,50
 310 517 310 517 310 519 c 0,51,52
 310 520 310 520 306 520 c 0,53,54
 263 520 263 520 266 520 c 1,55,56
 251 520 251 520 208 520 c 0,57,58
 33 520 33 520 38 520 c 2,59,-1
 0 480 l 2,60,61
 5 481 5 481 25 490 c 0,62,63
 39 496 39 496 46 496 c 0,64,65
 58 496 58 496 89 430 c 2,66,-1
 268 48 l 1,67,-1
 311 167 l 1,68,-1
 193 424 l 2,46,47
EndSplineSet
EndChar

StartChar: z
Encoding: 122 122 76
Width: 542
Flags: W
LayerCount: 2
Back
Fore
SplineSet
437 529 m 1,0,-1
 461 494 l 1,1,-1
 116 34 l 1,2,-1
 309 34 l 2,3,4
 379 34 379 34 404 56 c 0,5,6
 410 61 410 61 458 180 c 0,7,8
 505 296 505 296 509 296 c 0,9,10
 510 296 510 296 510 294 c 0,11,12
 510 289 510 289 504 269 c 2,13,-1
 481 163 l 1,14,-1
 443 1 l 1,15,-1
 22 1 l 1,16,-1
 4 38 l 1,17,-1
 370 498 l 1,18,-1
 183 498 l 2,19,20
 125 498 125 498 103 474 c 0,21,22
 98 469 98 469 83 361 c 0,23,24
 69 257 69 257 61 257 c 0,25,26
 58 257 58 257 55 273 c 2,27,-1
 55 529 l 1,28,-1
 437 529 l 1,0,-1
EndSplineSet
EndChar

StartChar: dagger
Encoding: 259 8224 77
Width: 332
Flags: W
LayerCount: 2
Back
Fore
SplineSet
214 249 m 1,0,-1
 214 560 l 1,1,-1
 335 560 l 1,2,-1
 306 586 l 1,3,-1
 220 586 l 1,4,-1
 205 589 l 1,5,-1
 205 667 l 1,6,-1
 236 666 l 1,7,-1
 264 710 l 1,8,-1
 68 710 l 1,9,-1
 96 666 l 1,10,-1
 130 667 l 1,11,-1
 130 589 l 1,12,-1
 116 586 l 1,13,-1
 29 586 l 1,14,-1
 1 560 l 1,15,-1
 122 560 l 1,16,-1
 122 249 l 1,17,-1
 144 230 l 1,18,-1
 145 185 l 1,19,-1
 156 177 l 1,20,-1
 156 139 l 1,21,-1
 162 125 l 1,22,-1
 170 -139 l 1,23,-1
 174 125 l 1,24,-1
 179 139 l 1,25,-1
 179 177 l 1,26,-1
 191 185 l 1,27,-1
 192 230 l 1,28,-1
 214 249 l 1,0,-1
194 437 m 1,29,-1
 194 523 l 1,30,-1
 166 523 l 1,31,-1
 166 529 l 1,32,-1
 199 529 l 1,33,-1
 199 320 l 1,34,-1
 169 320 l 1,35,-1
 169 327 l 1,36,-1
 194 327 l 1,37,-1
 194 431 l 1,38,-1
 179 431 l 1,39,-1
 179 437 l 1,40,-1
 194 437 l 1,29,-1
EndSplineSet
EndChar

StartChar: AE
Encoding: 198 198 78
Width: 933
Flags: W
LayerCount: 2
Back
Fore
SplineSet
399 535 m 1,0,-1
 399 320 l 1,1,-1
 8 238 l 1,2,-1
 155 245 l 1,3,-1
 -13 -20 l 1,4,-1
 266 -20 l 1,5,6
 230 -12 230 -12 193 -3 c 128,-1,7
 156 6 156 6 141 19 c 0,8,9
 136 23 136 23 136 39 c 0,10,11
 136 70 136 70 148 98 c 0,12,13
 149 101 149 101 230 259 c 1,14,-1
 660 330 l 2,15,16
 669 332 669 332 678 332 c 0,17,18
 716 332 716 332 740 305 c 0,19,20
 743 301 743 301 743 296 c 0,21,22
 743 287 743 287 731 263 c 0,23,24
 716 232 716 232 711 216 c 1,25,-1
 779 302 l 1,26,-1
 819 428 l 1,27,-1
 772 410 l 2,28,29
 752 404 752 404 716.5 393 c 128,-1,30
 681 382 681 382 624 370 c 2,31,-1
 528 349 l 1,32,-1
 528 613 l 2,33,34
 528 643 528 643 557 644 c 2,35,-1
 693 647 l 2,36,37
 752 648 752 648 784 624 c 0,38,39
 800 611 800 611 824 553.5 c 128,-1,40
 848 496 848 496 851 464 c 2,41,-1
 850 535 l 2,42,43
 851 616 851 616 846 645 c 0,44,45
 839 690 839 690 815 690 c 2,46,-1
 290 687 l 1,47,-1
 291 621 l 1,48,49
 315 656 315 656 327 656 c 0,50,51
 338 656 338 656 338 629 c 0,52,53
 338 618 338 618 330 600 c 2,54,-1
 187 299 l 1,55,-1
 248 310 l 2,56,57
 248 308 248 308 247 308 c 1,58,-1
 247 308 l 1,59,60
 247 323 247 323 303 432 c 0,61,62
 363 549 363 549 387 549 c 0,63,64
 395 549 395 549 399 535 c 1,0,-1
923 227 m 1,65,66
 897 181 897 181 841 113 c 0,67,68
 783 41 783 41 759 29 c 0,69,70
 725 12 725 12 628 12 c 0,71,72
 577 12 577 12 554 22 c 0,73,74
 536 30 536 30 535 76 c 2,75,-1
 535 281 l 1,76,-1
 399 263 l 1,77,-1
 399 -20 l 1,78,79
 513 -20 513 -20 627 -19 c 1,80,81
 788 -24 788 -24 815 -71 c 1,82,-1
 923 227 l 1,65,66
EndSplineSet
EndChar

StartChar: currency
Encoding: 164 164 79
Width: 571
Flags: W
LayerCount: 2
Back
Fore
SplineSet
458 484 m 0,0,1
 458 547 458 547 420 593 c 1,2,-1
 452 625 l 1,3,4
 483 615 483 615 514 588 c 128,-1,5
 545 561 545 561 555 534 c 1,6,7
 551 575 551 575 511 627 c 0,8,9
 475 673 475 673 441 692 c 1,10,-1
 380 630 l 1,11,12
 340 658 340 658 286 658 c 0,13,14
 223 658 223 658 178 620 c 1,15,-1
 153 645 l 1,16,17
 163 676 163 676 190 707.5 c 128,-1,18
 217 739 217 739 244 749 c 1,19,20
 202 744 202 744 151 704 c 0,21,22
 105 668 105 668 86 635 c 1,23,-1
 142 579 l 1,24,25
 113 538 113 538 113 484 c 0,26,27
 113 425 113 425 147 381 c 1,28,-1
 120 353 l 1,29,30
 89 362 89 362 57.5 389.5 c 128,-1,31
 26 417 26 417 16 444 c 1,32,33
 21 402 21 402 61 351 c 0,34,35
 96 305 96 305 130 286 c 1,36,-1
 186 342 l 1,37,38
 229 310 229 310 286 310 c 0,39,40
 335 310 335 310 374 334 c 1,41,-1
 408 299 l 1,42,43
 399 268 399 268 371.5 237 c 128,-1,44
 344 206 344 206 317 196 c 1,45,46
 359 200 359 200 410 240 c 0,47,48
 456 276 456 276 475 310 c 1,49,-1
 416 369 l 1,50,51
 458 416 458 416 458 484 c 0,0,1
188 488 m 256,52,53
 188 530 188 530 216.5 560 c 128,-1,54
 245 590 245 590 286 590 c 0,55,56
 326 590 326 590 355 560 c 128,-1,57
 384 530 384 530 384 488 c 256,58,59
 384 446 384 446 355 416 c 128,-1,60
 326 386 326 386 286 386 c 0,61,62
 245 386 245 386 216.5 416 c 128,-1,63
 188 446 188 446 188 488 c 256,52,53
EndSplineSet
EndChar
